<?xml version='1.0' encoding='utf-8'?>
<svg xmlns="http://www.w3.org/2000/svg" width="1920" height="1080" viewBox="0 0 1920 1080" data-theme="light">
  <style>
        @font-face {
            font-family: 'Inter';
            src: url('assets/fonts/Inter-Regular.ttf') format('truetype');
            font-weight: 400;
            font-style: normal;
            font-display: swap;
        }
        @font-face {
            font-family: 'Inter';
            src: url('assets/fonts/Inter-Bold.ttf') format('truetype');
            font-weight: 600;
            font-style: normal;
            font-display: swap;
        }
        @font-face {
            font-family: 'Inter';
            src: url('assets/fonts/Inter-Bold.ttf') format('truetype');
            font-weight: 800;
            font-style: normal;
            font-display: swap;
        }
        
:root {
    --background: #f8fafc;
    --panel: #ffffff;
    --primary-text: #0f172a;
    --muted-text: #64748b;
    --inverse-text: #ffffff;
    --border: #e2e8f0;
    --shadow-color: #000000;
    --icon-pad-bg: #1e293b;
    --art-glow: #0891b2;
    --art-glow-opacity: 0.10;
    --art-sheen: #ffffff;
    --art-sheen-opacity: 0.34;
    --art-shadow: #0f172a;
    --art-shadow-opacity: 0.14;
    --art-muted-line: #94a3b8;
    --art-panel-tint: #f1f5f9;
    --font-family: 'Inter', 'Segoe UI', 'Kalam', Roboto, Helvetica, Arial, sans-serif;
    --radius-xl: 16px;
    --font-family-headline: 'Inter', 'Segoe UI', 'Kalam', Roboto, Helvetica, Arial, sans-serif;
    --font-family-body: 'Inter', 'Segoe UI', 'Kalam', Roboto, Helvetica, Arial, sans-serif;
    --font-heading: 'Inter', 'Segoe UI', 'Kalam', Roboto, Helvetica, Arial, sans-serif;
    --font-body: 'Inter', 'Segoe UI', 'Kalam', Roboto, Helvetica, Arial, sans-serif;
    --font-size-h1: 56px;
    --font-size-h2: 40px;
    --font-size-h3: 28px;
    --font-size-body: 24px;
    --font-size-caption: 18px;
    --secondary-text: var(--muted-text);
    --panel-border: var(--border);
    --font-weight-normal: 400;
    --font-weight-medium: 500;
    --font-weight-semibold: 600;
    --font-weight-bold: 700;
    --spacing-gutter-pct: 0.07;
    --spacing-top-pct: 0.15;
    --spacing-bottom-pct: 0.07;
    --spacing-title-y-pct: 0.055;
    --accent-1: #2563eb;
    --accent-2: #16a34a;
    --accent-3: #ea580c;
    --accent-4: #7c3aed;
    --accent-5: #0284c7;
    --accent-6: #475569;
}
:root[data-theme="dark"] {
    --background: #0f172a;
    --panel: #1e293b;
    --primary-text: #f1f5f9;
    --muted-text: #94a3b8;
    --inverse-text: #0f172a;
    --border: #334155;
    --shadow-color: #000000;
    --icon-pad-bg: #1e293b;
    --art-glow: #7dd3fc;
    --art-glow-opacity: 0.18;
    --art-sheen: #ffffff;
    --art-sheen-opacity: 0.18;
    --art-shadow: #000000;
    --art-shadow-opacity: 0.28;
    --art-muted-line: #64748b;
    --art-panel-tint: #1e293b;
    --accent-1: #60a5fa;
    --accent-2: #4ade80;
    --accent-3: #f97316;
    --accent-4: #a78bfa;
    --accent-5: #38bdf8;
    --accent-6: #94a3b8;
}
:root[data-theme="light"] {
    --background: #f8fafc;
    --panel: #ffffff;
    --primary-text: #0f172a;
    --muted-text: #64748b;
    --inverse-text: #ffffff;
    --border: #e2e8f0;
    --shadow-color: #000000;
    --icon-pad-bg: #1e293b;
    --art-glow: #0891b2;
    --art-glow-opacity: 0.10;
    --art-sheen: #ffffff;
    --art-sheen-opacity: 0.34;
    --art-shadow: #0f172a;
    --art-shadow-opacity: 0.14;
    --art-muted-line: #94a3b8;
    --art-panel-tint: #f1f5f9;
    --accent-1: #2563eb;
    --accent-2: #16a34a;
    --accent-3: #ea580c;
    --accent-4: #7c3aed;
    --accent-5: #0284c7;
    --accent-6: #475569;
}</style>
  <rect x="0" y="0" width="1.92E+3" height="1.08E+3" fill="#252a34" stroke="none" id="programmatic_background"/>
  <line id="HEADER_DECOR" x1="960.0" x2="1080.0" y1="125.0" y2="125.0" stroke="var(--accent-1)" stroke-width="6" stroke-linecap="round"/>
  <defs>
    <pattern id="svg96cf9d13-napkin-hatch" patternUnits="userSpaceOnUse" width="12" height="12">
      <path d="M -3 12 L 12 -3 M 0 15 L 15 0" fill="none" stroke="var(--primary-text)" stroke-width="1" stroke-opacity="0.05"/>
    </pattern>
    <filter id="svg96cf9d13-shadow" x="-30%" y="-30%" width="160%" height="160%">
      <feDropShadow dx="0" dy="3" stdDeviation="6" flood-color="#000000" flood-opacity="0.10"/>
      <feDropShadow dx="0" dy="8" stdDeviation="12" flood-color="#000000" flood-opacity="0.16"/>
    </filter>
    <marker id="svg96cf9d13-arrowhead" markerWidth="12" markerHeight="12" refX="10" refY="6" orient="auto">
      <path d="M 0 0 L 12 6 L 0 12 Z" fill="var(--muted-text)"/>
    </marker>
    <radialGradient id="svg96cf9d13-universal-edge-vignette" cx="50%" cy="50%" r="72%">
      <stop offset="0%" stop-color="var(--background)" stop-opacity="0"/>
      <stop offset="72%" stop-color="var(--background)" stop-opacity="0.12"/>
      <stop offset="100%" stop-color="var(--primary-text)" stop-opacity="0.08"/>
    </radialGradient>
    <linearGradient id="svg96cf9d13-universal-surface-sheen" x1="0%" y1="0%" x2="100%" y2="100%">
      <stop offset="0%" stop-color="var(--art-sheen)" stop-opacity="var(--art-sheen-opacity)"/>
      <stop offset="46%" stop-color="var(--art-sheen)" stop-opacity="0.035"/>
      <stop offset="100%" stop-color="var(--art-panel-tint)" stop-opacity="0.14"/>
    </linearGradient>
    <radialGradient id="svg96cf9d13-universal-icon-aura" cx="50%" cy="42%" r="64%">
      <stop offset="0%" stop-color="var(--art-glow)" stop-opacity="var(--art-glow-opacity)"/>
      <stop offset="100%" stop-color="var(--background)" stop-opacity="0"/>
    </radialGradient>
    <filter id="svg96cf9d13-text-glow" x="-20%" y="-20%" width="140%" height="140%">
      <feDropShadow dx="0" dy="0" stdDeviation="2" flood-color="#000000" flood-opacity="0.4"/>
    </filter>
  </defs>
  <rect width="100%" height="100%" fill="var(--background)" id="CANVAS_BG"/>
  <rect width="100%" height="100%" fill="url(#svg96cf9d13-napkin-hatch)"/>
  <rect id="UNIVERSAL_EDGE_VIGNETTE" width="100%" height="100%" fill="url(#svg96cf9d13-universal-edge-vignette)" opacity="0.62"/>
  <text id="TITLE" x="960.0" y="59" text-anchor="middle" font-size="58" font-weight="800" fill="#0f172a" style="font-size: 60px; font-family: Inter, Segoe UI, Kalam, Roboto, Helvetica, Arial, sans-serif; font-weight: 700; letter-spacing:-1.2px;" data-final-font-size="60">
    <tspan x="960.0" dy="68.00px">Atmospheric and Marine Anomalies</tspan>
  </text>
  <rect id="TITLE_FRAME" x="134" y="56" width="1652" height="98" fill="none"/>
  <rect x="120" y="165" width="1680" height="820" rx="40" fill="var(--panel)" fill-opacity="0.22" stroke="var(--muted-text)" stroke-width="2.4" opacity="0.92"/>
  <path d="M 272.0 282.0 Q 319.5 282.0 367.0 418.0 Q 414.5 418.0 462.0 554.0 Q 509.5 554.0 557.0 690.0 Q 604.5 690.0 652.0 826.0" fill="none" stroke="var(--muted-text)" stroke-width="10" stroke-linecap="round" stroke-linejoin="round" opacity="0.36" marker-end="url(#svg96cf9d13-arrowhead)"/>
  <g id="DIAGRAM_MAIN" transform="translate(-60 -20) scale(1.08)">
    <g filter="url(#svg96cf9d13-shadow)">
      <rect id="ITEM_1_BG" x="190.0" y="210.0" width="980" height="144" rx="24" fill="var(--panel)" fill-opacity="0.97" stroke="var(--accent-1)" stroke-width="2.5"/>
      <rect x="190.0" y="210.0" width="980" height="144" rx="16" fill="url(#svg96cf9d13-universal-surface-sheen)" opacity="0.86"/>
      <rect x="190.0" y="210.0" width="980" height="18" rx="9" fill="var(--accent-1)" fill-opacity="0.55"/>
      <circle id="ITEM_1_PAD" cx="272.0" cy="282.0" r="40" fill="var(--icon-pad-bg)" opacity="0.95" fill-opacity="0.9" stroke-width="2" stroke="var(--primary-text)"/>
      <circle id="ITEM_1_PAD_INNER" cx="272.0" cy="282.0" r="31.20" fill="var(--accent-2)" fill-opacity="0.22"/>
      <circle cx="272.0" cy="282.0" r="32" fill="none" stroke="var(--accent-1)" stroke-width="3" stroke-dasharray="6 4"/>
      <g id="ITEM_1_ICON" transform="translate(242.0, 252.0)" data-icon-size="60" stroke-dasharray="6 4">
        <g transform="translate(-30.509090909090915,-31.454545454545457) scale(4.033939393939394)" vector-effect="non-scaling-stroke" fill="#f1f5f9" fill-opacity="1.0" stroke="none">
          <path fill="#f1f5f9" d="M7.33 16.58c0-.23.08-.41.23-.56c.16-.15.37-.22.64-.22h5.71c.27 0 .48.07.64.22s.23.33.23.56c0 .27-.08.49-.23.64s-.37.23-.64.23H8.2c-.27 0-.48-.08-.64-.23s-.23-.36-.23-.64m0-5.91c0-.22.08-.41.23-.55c.16-.15.37-.22.64-.22h2.96c.27 0 .48.07.64.22c.16.14.24.33.24.55c0 .27-.08.48-.24.64s-.37.24-.64.24H8.2c-.27 0-.48-.08-.64-.23s-.23-.38-.23-.65m.99 8.87c0-.22.09-.42.28-.6c.18-.18.39-.28.6-.28c.26 0 .46.09.62.27s.24.38.24.61c0 .27-.08.49-.23.65s-.36.23-.63.23a.87.87 0 0 1-.61-.24c-.19-.17-.27-.38-.27-.64m1.42-5.93c0-.23.07-.44.22-.61q.225-.27.54-.27c.26 0 .48.09.64.27s.24.38.24.61c0 .27-.08.49-.23.65c-.16.16-.37.23-.65.23c-.23 0-.41-.08-.55-.24s-.21-.37-.21-.64m.99 5.93a.87.87 0 0 1 .88-.88h3.83l.88.88c0 .26-.09.47-.27.64s-.38.24-.61.24h-3.83c-.27 0-.49-.08-.65-.24s-.23-.37-.23-.64m1.32-5.93c0-.22.09-.42.28-.6c.18-.18.39-.28.6-.28h3.83q.39 0 .63.27c.16.18.24.38.24.61c0 .27-.08.49-.23.65c-.16.16-.37.23-.64.23h-3.83a.87.87 0 0 1-.61-.24c-.18-.16-.27-.37-.27-.64m.76-2.94c0-.22.08-.41.24-.55s.37-.22.64-.22h5.71c.23 0 .43.08.61.23q.27.225.27.54c0 .26-.09.48-.27.64s-.38.24-.61.24h-5.71c-.27 0-.49-.08-.65-.24s-.23-.37-.23-.64m2.63 5.91c0-.21.09-.4.27-.55a.926.926 0 0 1 1.22 0a.7.7 0 0 1 .27.55q0 .39-.27.63c-.18.16-.38.24-.61.24a.87.87 0 0 1-.61-.24q-.27-.225-.27-.63m1.54 2.96c0-.23.08-.44.24-.61q.24-.27.63-.27h1.87c.26 0 .47.09.63.26s.24.38.24.62c0 .27-.08.49-.23.65s-.37.23-.64.23h-1.87c-.27 0-.48-.08-.64-.23c-.15-.16-.23-.38-.23-.65m.87-2.96c0-.21.09-.4.27-.55s.38-.23.61-.23h3.07c.22 0 .4.08.54.23s.22.33.22.55c0 .27-.07.48-.21.64s-.32.23-.55.23h-3.07a.87.87 0 0 1-.61-.24q-.27-.225-.27-.63m.44-2.97c0-.22.09-.42.28-.6c.18-.18.39-.28.6-.28h1.96q.315 0 .54.27c.15.18.23.38.23.61c0 .27-.07.48-.22.64c-.14.16-.33.24-.55.24h-1.96a.87.87 0 0 1-.61-.24c-.18-.16-.27-.37-.27-.64m2.74-2.94c0-.22.07-.4.22-.55s.33-.22.55-.22c.27 0 .48.07.64.22c.16.14.24.33.24.55c0 .27-.08.48-.24.64s-.37.24-.64.24c-.23 0-.41-.08-.55-.24c-.15-.16-.22-.37-.22-.64" vector-effect="non-scaling-stroke" stroke="none"/>
        </g>
      </g>
      <rect x="345.0" y="238.0" width="690.0" height="24" rx="12" fill="var(--accent-1)" fill-opacity="0.08"/>
      <text x="1136.0" y="252.0" text-anchor="end" font-size="17" font-weight="800" fill="var(--accent-1)" opacity="0.72">01</text>
      <text id="ITEM_1_HEAD" x="358.0" y="228.0" text-anchor="start" font-weight="800" font-size="30" fill="var(--primary-text)" data-bg-id="ITEM_1_BG" fill-opacity="1.0" style="font-size: 30px; font-family: Inter, Segoe UI, Kalam, Roboto, Helvetica, Arial, sans-serif; font-weight: 700; letter-spacing:-0.4px;" data-final-font-size="30">
        <tspan x="358.0" dy="28.31px">Dust Transport</tspan>
      </text>
      <rect id="ITEM_1_HEAD_FRAME" x="358.0" y="228.0" width="620.0" height="34" fill="none"/>
      <text id="ITEM_1_BODY" x="358.0" y="270.0" text-anchor="start" font-size="23" fill="var(--primary-text)" data-bg-id="ITEM_1_BG" style="font-size: 26px; font-family: Inter, Segoe UI, Kalam, Roboto, Helvetica, Arial, sans-serif; font-weight: 400;" data-final-font-size="26">
        <tspan x="358.0" dy="23.94px">Saharan and Sahelian winds carry mineral particles</tspan>
        <tspan x="358.0" dy="29.90px">across the ocean</tspan>
      </text>
      <rect id="ITEM_1_BODY_FRAME" x="358.0" y="270.0" width="650.0" height="64.0" fill="none"/>
    </g>
    <g filter="url(#svg96cf9d13-shadow)">
      <rect id="ITEM_2_BG" x="285.0" y="346.0" width="980" height="144" rx="24" fill="var(--panel)" fill-opacity="0.97" stroke="var(--accent-2)" stroke-width="2.5"/>
      <rect x="285.0" y="346.0" width="980" height="144" rx="16" fill="url(#svg96cf9d13-universal-surface-sheen)" opacity="0.86"/>
      <rect x="285.0" y="346.0" width="980" height="18" rx="9" fill="var(--accent-2)" fill-opacity="0.55"/>
      <circle id="ITEM_2_PAD" cx="367.0" cy="418.0" r="40" fill="var(--icon-pad-bg)" opacity="0.95" fill-opacity="0.9" stroke-width="2" stroke="var(--primary-text)"/>
      <circle id="ITEM_2_PAD_INNER" cx="367.0" cy="418.0" r="31.20" fill="var(--accent-3)" fill-opacity="0.22"/>
      <circle cx="367.0" cy="418.0" r="32" fill="none" stroke="var(--accent-2)" stroke-width="3" stroke-dasharray="6 4"/>
      <g id="ITEM_2_ICON" transform="translate(337.0, 388.0)" data-icon-size="60" stroke-dasharray="6 4">
        <g transform="translate(-5.8222222222222255,-10.444444444444446) scale(2.3111111111111113)">
          <path d="M4.47009 10L4.86945 13.1047L4.5 15.5L5.3469 16.8165L6.77 27.88C6.85 28.52 7.38 29 8 29H24.14C24.76 29 25.29 28.52 25.37 27.88L27.5483 10L16 8L4.47009 10Z" fill="#0074BA"/>
          <path d="M4.8715 13.1206L5.34651 16.8135C5.03778 17.5423 4.77554 18.2428 4.58236 18.8988C4.16976 20.2998 4.14163 21.2752 4.40221 21.8652C4.60257 22.3188 5.10141 22.8051 6.60922 22.871C8.08469 22.9349 9.26815 22.6923 10.275 22.2216C11.2865 21.7488 12.1735 21.0204 13.0188 20.0379C14.4969 18.3196 15.7496 15.9556 17.287 13.0544L17.2876 13.0532C17.5505 12.5571 17.8218 12.0451 18.104 11.5181C18.3646 11.0311 18.9706 10.8477 19.4575 11.1084C19.9444 11.369 20.1279 11.975 19.8672 12.4619C19.5968 12.9671 19.3328 13.466 19.0731 13.9569C17.5483 16.8385 16.1724 19.4387 14.5349 21.3422C13.5564 22.4796 12.4528 23.4112 11.1221 24.0334C9.78685 24.6576 8.27634 24.9451 6.52196 24.8691C4.59477 24.7849 3.19736 24.0874 2.57272 22.6733C2.0083 21.3954 2.22642 19.819 2.66383 18.3338C3.11458 16.8032 3.87411 15.1285 4.67413 13.5158C4.73953 13.3839 4.80537 13.2522 4.8715 13.1206Z" fill="#D3D3D3"/>
          <path d="M3.35562 9.06L3.00562 6.71C2.95562 6.34 3.24562 6 3.62562 6H28.3756C28.7556 6 29.0456 6.34 28.9956 6.71L28.6356 9.06C28.5556 9.6 28.0956 10 27.5556 10H4.44562C3.89562 10 3.43562 9.6 3.35562 9.06Z" fill="#00A6ED"/>
        </g>
      </g>
      <rect x="440.0" y="374.0" width="690.0" height="24" rx="12" fill="var(--accent-2)" fill-opacity="0.08"/>
      <text x="1231.0" y="388.0" text-anchor="end" font-size="17" font-weight="800" fill="var(--accent-2)" opacity="0.72">02</text>
      <text id="ITEM_2_HEAD" x="453.0" y="364.0" text-anchor="start" font-weight="800" font-size="30" fill="var(--primary-text)" data-bg-id="ITEM_2_BG" fill-opacity="1.0" style="font-size: 30px; font-family: Inter, Segoe UI, Kalam, Roboto, Helvetica, Arial, sans-serif; font-weight: 700; letter-spacing:-0.4px;" data-final-font-size="30">
        <tspan x="453.0" dy="28.31px">Red Rain Event</tspan>
      </text>
      <rect id="ITEM_2_HEAD_FRAME" x="453.0" y="364.0" width="620.0" height="34" fill="none"/>
      <text id="ITEM_2_BODY" x="453.0" y="406.0" text-anchor="start" font-size="23" fill="var(--primary-text)" data-bg-id="ITEM_2_BG" style="font-size: 26px; font-family: Inter, Segoe UI, Kalam, Roboto, Helvetica, Arial, sans-serif; font-weight: 400;" data-final-font-size="26">
        <tspan x="453.0" dy="23.94px">Dust particles mix with rain to create</tspan>
        <tspan x="453.0" dy="29.90px">colored precipitation</tspan>
      </text>
      <rect id="ITEM_2_BODY_FRAME" x="453.0" y="406.0" width="650.0" height="64.0" fill="none"/>
    </g>
    <g filter="url(#svg96cf9d13-shadow)">
      <rect id="ITEM_3_BG" x="380.0" y="482.0" width="980" height="144" rx="24" fill="var(--panel)" fill-opacity="0.97" stroke="var(--accent-3)" stroke-width="2.5"/>
      <rect x="380.0" y="482.0" width="980" height="144" rx="16" fill="url(#svg96cf9d13-universal-surface-sheen)" opacity="0.86"/>
      <rect x="380.0" y="482.0" width="980" height="18" rx="9" fill="var(--accent-3)" fill-opacity="0.55"/>
      <circle id="ITEM_3_PAD" cx="462.0" cy="554.0" r="40" fill="var(--icon-pad-bg)" opacity="0.95" fill-opacity="0.9" stroke-width="2" stroke="var(--primary-text)"/>
      <circle id="ITEM_3_PAD_INNER" cx="462.0" cy="554.0" r="31.20" fill="var(--accent-4)" fill-opacity="0.22"/>
      <circle cx="462.0" cy="554.0" r="32" fill="none" stroke="var(--accent-3)" stroke-width="3" stroke-dasharray="6 4"/>
      <g id="ITEM_3_ICON" transform="translate(432.0, 524.0)" data-icon-size="60" stroke-dasharray="6 4">
        <g transform="translate(-5.617699115044255,-5.617699115044255) scale(2.2088495575221243)">
          <path d="M10.38 29.1038L23.28 30.0938C24.36 30.0938 25.38 29.5838 26.02 28.7138L29.2 24.4138C29.76 23.6438 29.98 22.6738 29.79 21.7438L29.2849 19.1806L28.12 18.3438L27.785 15.6438L28.4809 15.1008L28.45 14.9438C28.29 14.1238 27.84 13.3938 27.17 12.8938L23.38 9.52378L21 5.12378L18.1 4.96378L13.04 3.12378L6.37996 10.1638L4.76996 13.7738L4.50996 14.3538L2.84996 17.4238C2.67996 17.7238 2.86996 20.5038 2.80996 20.8438C2.80996 20.8438 9.75996 29.1038 10.38 29.1038Z" fill="#9B9B9B"/>
          <path d="M20 10.1038L15.95 21.2438L25.66 23.9438L29.29 19.1738L28.48 15.1038L20 10.1038Z" fill="#E6E6E6"/>
          <path d="M2.51 18.3936L2 22.1036H5L5.79 18.9736C5.92 18.4136 6.27 17.9436 6.76 17.6436L11 15.1036L7.95 8.4436L6.57 9.9536C6.44 10.0936 6.34 10.2536 6.26 10.4336L4.51 14.3636L2.85 17.4336C2.68 17.7336 2.57 18.0536 2.51 18.3936Z" fill="#636363"/>
          <path d="M11.51 20.6137L16 25.1037L25.66 23.9437L18.18 20.5437C17.52 20.2437 17.18 19.4937 17.39 18.7937L20 10.1037L21 5.12367C20.16 3.78367 19.77 3.40367 18.33 2.93367C17.37 2.59367 16.54 2.30367 16.54 2.30367C16.54 2.30367 16 2.07367 15.42 2.01367C14.69 1.95367 14.22 2.08367 13.6 2.55367L11 15.1037V19.3837C11 19.8437 11.18 20.2837 11.51 20.6137Z" fill="#D3D3D3"/>
          <path d="M2 22.1038H5L16 25.1038V30.0938L11.75 30.1038C10.6 30.1038 9.47 29.8438 8.44 29.3238L7.07 28.6438C6.36 28.2938 5.72 27.8238 5.16 27.2638L4.23 26.3338C3.42 25.5238 2.81 24.5438 2.45 23.4538L2 22.1038Z" fill="#636363"/>
          <path d="M29.98 22.9136C30.1 23.5736 29.92 24.2536 29.47 24.7636L25.5 29.2836C25.09 29.7536 24.33 30.0936 23.71 30.1036H16V25.1036L25.66 23.9436L29.28 19.1736L29.98 22.9136Z" fill="#9B9B9B"/>
          <path d="M17.51 4.43372L16.4 2.86372C15.72 1.90372 14.33 1.79372 13.51 2.64372L6.75003 9.68372C6.10003 10.3637 6.22003 11.4737 7.00003 11.9937L11 15.1037L15.63 10.8937C16.18 10.3937 16.58 9.75372 16.79 9.03372L17.74 5.78372C17.87 5.32372 17.79 4.82372 17.51 4.43372Z" fill="#9B9B9B"/>
        </g>
      </g>
      <rect x="535.0" y="510.0" width="690.0" height="24" rx="12" fill="var(--accent-3)" fill-opacity="0.08"/>
      <text x="1326.0" y="524.0" text-anchor="end" font-size="17" font-weight="800" fill="var(--accent-3)" opacity="0.72">03</text>
      <text id="ITEM_3_HEAD" x="548.0" y="500.0" text-anchor="start" font-weight="800" font-size="30" fill="var(--accent-4)" data-bg-id="ITEM_3_BG" fill-opacity="1.0" style="font-size: 30px; font-family: Inter, Segoe UI, Kalam, Roboto, Helvetica, Arial, sans-serif; font-weight: 700; letter-spacing:-0.4px;" data-final-font-size="30">
        <tspan x="548.0" dy="28.31px">Mega-Tsunami Wave</tspan>
      </text>
      <rect id="ITEM_3_HEAD_FRAME" x="548.0" y="500.0" width="620.0" height="34" fill="none"/>
      <text id="ITEM_3_BODY" x="548.0" y="542.0" text-anchor="start" font-size="23" fill="var(--primary-text)" data-bg-id="ITEM_3_BG" style="font-size: 26px; font-family: Inter, Segoe UI, Kalam, Roboto, Helvetica, Arial, sans-serif; font-weight: 400;" data-final-font-size="26">
        <tspan x="548.0" dy="29.92px">A 170-meter wave moved boulders to high coastal cliffs</tspan>
      </text>
      <rect id="ITEM_3_BODY_FRAME" x="548.0" y="542.0" width="650.0" height="64.0" fill="none"/>
    </g>
    <g filter="url(#svg96cf9d13-shadow)">
      <rect id="ITEM_4_BG" x="475.0" y="618.0" width="980" height="144" rx="24" fill="var(--panel)" fill-opacity="0.97" stroke="var(--accent-4)" stroke-width="2.5"/>
      <rect x="475.0" y="618.0" width="980" height="144" rx="16" fill="url(#svg96cf9d13-universal-surface-sheen)" opacity="0.86"/>
      <rect x="475.0" y="618.0" width="980" height="18" rx="9" fill="var(--accent-4)" fill-opacity="0.55"/>
      <circle id="ITEM_4_PAD" cx="557.0" cy="690.0" r="40" fill="var(--icon-pad-bg)" opacity="0.95" fill-opacity="0.9" stroke-width="2" stroke="var(--primary-text)"/>
      <circle id="ITEM_4_PAD_INNER" cx="557.0" cy="690.0" r="31.20" fill="var(--accent-5)" fill-opacity="0.22"/>
      <circle cx="557.0" cy="690.0" r="32" fill="none" stroke="var(--accent-4)" stroke-width="3" stroke-dasharray="6 4"/>
      <g id="ITEM_4_ICON" transform="translate(527.0, 660.0)" data-icon-size="60" stroke-dasharray="6 4">
        <g transform="translate(-5.657142857142858,-3.4285714285714315) scale(0.2785714285714286)" vector-effect="non-scaling-stroke" stroke-width="2.43" stroke-linecap="round" stroke-linejoin="round" stroke-opacity="1.0">
          <line x1="80" y1="56" x2="176" y2="56" fill="none" stroke="#f1f5f9" vector-effect="non-scaling-stroke"/>
          <path d="M80,56,64,215.24A8,8,0,0,0,72,224H184a8,8,0,0,0,8-8.76L176,56,133.12,17.85a8,8,0,0,0-10.24,0Z" fill="none" stroke="#f1f5f9" vector-effect="non-scaling-stroke"/>
          <line x1="128" y1="88" x2="128" y2="112" fill="none" stroke="#f1f5f9" vector-effect="non-scaling-stroke"/>
          <polyline points="208 88 208 112 48 112 48 88" fill="none" stroke="#f1f5f9" vector-effect="non-scaling-stroke"/>
          <line x1="68.77" y1="168" x2="187.23" y2="168" fill="none" stroke="#f1f5f9" vector-effect="non-scaling-stroke"/>
        </g>
      </g>
      <rect x="630.0" y="646.0" width="690.0" height="24" rx="12" fill="var(--accent-4)" fill-opacity="0.08"/>
      <text x="1421.0" y="660.0" text-anchor="end" font-size="17" font-weight="800" fill="var(--accent-4)" opacity="0.72">04</text>
      <text id="ITEM_4_HEAD" x="643.0" y="636.0" text-anchor="start" font-weight="800" font-size="30" fill="var(--primary-text)" data-bg-id="ITEM_4_BG" fill-opacity="1.0" style="font-size: 30px; font-family: Inter, Segoe UI, Kalam, Roboto, Helvetica, Arial, sans-serif; font-weight: 700; letter-spacing:-0.4px;" data-final-font-size="30">
        <tspan x="643.0" dy="28.31px">Maritime Sightings</tspan>
      </text>
      <rect id="ITEM_4_HEAD_FRAME" x="643.0" y="636.0" width="620.0" height="34" fill="none"/>
      <text id="ITEM_4_BODY" x="643.0" y="678.0" text-anchor="start" font-size="23" fill="var(--primary-text)" data-bg-id="ITEM_4_BG" style="font-size: 26px; font-family: Inter, Segoe UI, Kalam, Roboto, Helvetica, Arial, sans-serif; font-weight: 400;" data-final-font-size="26">
        <tspan x="643.0" dy="23.94px">Historical records note lights and unusual shapes</tspan>
        <tspan x="643.0" dy="29.90px">in Atlantic routes</tspan>
      </text>
      <rect id="ITEM_4_BODY_FRAME" x="643.0" y="678.0" width="650.0" height="64.0" fill="none"/>
    </g>
    <g filter="url(#svg96cf9d13-shadow)">
      <rect id="ITEM_5_BG" x="570.0" y="754.0" width="980" height="144" rx="24" fill="var(--panel)" fill-opacity="0.97" stroke="var(--accent-5)" stroke-width="2.5"/>
      <rect x="570.0" y="754.0" width="980" height="144" rx="16" fill="url(#svg96cf9d13-universal-surface-sheen)" opacity="0.86"/>
      <rect x="570.0" y="754.0" width="980" height="18" rx="9" fill="var(--accent-5)" fill-opacity="0.55"/>
      <circle id="ITEM_5_PAD" cx="652.0" cy="826.0" r="40" fill="var(--icon-pad-bg)" opacity="0.95" fill-opacity="0.9" stroke-width="2" stroke="var(--primary-text)"/>
      <circle id="ITEM_5_PAD_INNER" cx="652.0" cy="826.0" r="31.20" fill="var(--accent-6)" fill-opacity="0.22"/>
      <circle cx="652.0" cy="826.0" r="32" fill="none" stroke="var(--accent-5)" stroke-width="3" stroke-dasharray="6 4"/>
      <g id="ITEM_5_ICON" transform="translate(622.0, 796.0)" data-icon-size="60" stroke-dasharray="6 4">
        <g transform="translate(-3.844067796610173,-3.844067796610173) scale(2.820338983050848)" vector-effect="non-scaling-stroke" stroke-width="2.43" stroke-linecap="round" stroke-linejoin="round" stroke-opacity="1.0">
          <path d="M21.3 15.3a2.4 2.4 0 0 1 0 3.4l-2.6 2.6a2.4 2.4 0 0 1-3.4 0L2.7 8.7a2.41 2.41 0 0 1 0-3.4l2.6-2.6a2.41 2.41 0 0 1 3.4 0Z" vector-effect="non-scaling-stroke" fill="none" stroke="#f1f5f9"/>
          <path d="m14.5 12.5 2-2" vector-effect="non-scaling-stroke" fill="none" stroke="#f1f5f9"/>
          <path d="m11.5 9.5 2-2" vector-effect="non-scaling-stroke" fill="none" stroke="#f1f5f9"/>
          <path d="m8.5 6.5 2-2" vector-effect="non-scaling-stroke" fill="none" stroke="#f1f5f9"/>
          <path d="m17.5 15.5 2-2" vector-effect="non-scaling-stroke" fill="none" stroke="#f1f5f9"/>
        </g>
      </g>
      <rect x="725.0" y="782.0" width="690.0" height="24" rx="12" fill="var(--accent-5)" fill-opacity="0.08"/>
      <text x="1516.0" y="796.0" text-anchor="end" font-size="17" font-weight="800" fill="var(--accent-5)" opacity="0.72">05</text>
      <text id="ITEM_5_HEAD" x="738.0" y="772.0" text-anchor="start" font-weight="800" font-size="30" fill="var(--accent-6)" data-bg-id="ITEM_5_BG" fill-opacity="1.0" style="font-size: 30px; font-family: Inter, Segoe UI, Kalam, Roboto, Helvetica, Arial, sans-serif; font-weight: 700; letter-spacing:-0.4px;" data-final-font-size="30">
        <tspan x="738.0" dy="28.31px">Scientific Modeling</tspan>
      </text>
      <rect id="ITEM_5_HEAD_FRAME" x="738.0" y="772.0" width="620.0" height="34" fill="none"/>
      <text id="ITEM_5_BODY" x="738.0" y="814.0" text-anchor="start" font-size="23" fill="var(--primary-text)" data-bg-id="ITEM_5_BG" style="font-size: 26px; font-family: Inter, Segoe UI, Kalam, Roboto, Helvetica, Arial, sans-serif; font-weight: 400;" data-final-font-size="26">
        <tspan x="738.0" dy="23.94px">Researchers use geological data to reconstruct</tspan>
        <tspan x="738.0" dy="29.90px">prehistoric catastrophe mechanics</tspan>
      </text>
      <rect id="ITEM_5_BODY_FRAME" x="738.0" y="814.0" width="650.0" height="64.0" fill="none"/>
    </g>
  </g>
</svg>
