<?xml version='1.0' encoding='utf-8'?>
<svg xmlns="http://www.w3.org/2000/svg" width="1920" height="1080" viewBox="0 0 1920 1080" data-theme="light">
  <style>
        @font-face {
            font-family: 'Inter';
            src: url('assets/fonts/Inter-Regular.ttf') format('truetype');
            font-weight: 400;
            font-style: normal;
            font-display: swap;
        }
        @font-face {
            font-family: 'Inter';
            src: url('assets/fonts/Inter-Bold.ttf') format('truetype');
            font-weight: 600;
            font-style: normal;
            font-display: swap;
        }
        @font-face {
            font-family: 'Inter';
            src: url('assets/fonts/Inter-Bold.ttf') format('truetype');
            font-weight: 800;
            font-style: normal;
            font-display: swap;
        }
        
:root {
    --background: #f8fafc;
    --panel: #ffffff;
    --primary-text: #0f172a;
    --muted-text: #64748b;
    --inverse-text: #ffffff;
    --border: #e2e8f0;
    --shadow-color: #000000;
    --icon-pad-bg: #1e293b;
    --art-glow: #0891b2;
    --art-glow-opacity: 0.10;
    --art-sheen: #ffffff;
    --art-sheen-opacity: 0.34;
    --art-shadow: #0f172a;
    --art-shadow-opacity: 0.14;
    --art-muted-line: #94a3b8;
    --art-panel-tint: #f1f5f9;
    --font-family: 'Inter', 'Segoe UI', 'Kalam', Roboto, Helvetica, Arial, sans-serif;
    --radius-xl: 16px;
    --font-family-headline: 'Inter', 'Segoe UI', 'Kalam', Roboto, Helvetica, Arial, sans-serif;
    --font-family-body: 'Inter', 'Segoe UI', 'Kalam', Roboto, Helvetica, Arial, sans-serif;
    --font-heading: 'Inter', 'Segoe UI', 'Kalam', Roboto, Helvetica, Arial, sans-serif;
    --font-body: 'Inter', 'Segoe UI', 'Kalam', Roboto, Helvetica, Arial, sans-serif;
    --font-size-h1: 56px;
    --font-size-h2: 40px;
    --font-size-h3: 28px;
    --font-size-body: 24px;
    --font-size-caption: 18px;
    --secondary-text: var(--muted-text);
    --panel-border: var(--border);
    --font-weight-normal: 400;
    --font-weight-medium: 500;
    --font-weight-semibold: 600;
    --font-weight-bold: 700;
    --spacing-gutter-pct: 0.07;
    --spacing-top-pct: 0.15;
    --spacing-bottom-pct: 0.07;
    --spacing-title-y-pct: 0.055;
    --accent-1: #0891b2;
    --accent-2: #db2777;
    --accent-3: #ca8a04;
    --accent-4: #65a30d;
    --accent-5: #ea580c;
    --accent-6: #9333ea;
}
:root[data-theme="dark"] {
    --background: #0f172a;
    --panel: #1e293b;
    --primary-text: #f1f5f9;
    --muted-text: #94a3b8;
    --inverse-text: #0f172a;
    --border: #334155;
    --shadow-color: #000000;
    --icon-pad-bg: #1e293b;
    --art-glow: #7dd3fc;
    --art-glow-opacity: 0.18;
    --art-sheen: #ffffff;
    --art-sheen-opacity: 0.18;
    --art-shadow: #000000;
    --art-shadow-opacity: 0.28;
    --art-muted-line: #64748b;
    --art-panel-tint: #1e293b;
    --accent-1: #22d3ee;
    --accent-2: #f472b6;
    --accent-3: #facc15;
    --accent-4: #a3e635;
    --accent-5: #fb923c;
    --accent-6: #c084fc;
}
:root[data-theme="light"] {
    --background: #f8fafc;
    --panel: #ffffff;
    --primary-text: #0f172a;
    --muted-text: #64748b;
    --inverse-text: #ffffff;
    --border: #e2e8f0;
    --shadow-color: #000000;
    --icon-pad-bg: #1e293b;
    --art-glow: #0891b2;
    --art-glow-opacity: 0.10;
    --art-sheen: #ffffff;
    --art-sheen-opacity: 0.34;
    --art-shadow: #0f172a;
    --art-shadow-opacity: 0.14;
    --art-muted-line: #94a3b8;
    --art-panel-tint: #f1f5f9;
    --accent-1: #0891b2;
    --accent-2: #db2777;
    --accent-3: #ca8a04;
    --accent-4: #65a30d;
    --accent-5: #ea580c;
    --accent-6: #9333ea;
}</style>
  <rect x="0" y="0" width="1.92E+3" height="1.08E+3" fill="#252a34" stroke="none" id="programmatic_background"/>
  <line id="HEADER_DECOR" x1="960.0" x2="1080.0" y1="135.0" y2="135.0" stroke="var(--accent-1)" stroke-width="6" stroke-linecap="round"/>
  <defs>
    <pattern id="svg3f785b2d-napkin-hatch" patternUnits="userSpaceOnUse" width="12" height="12">
      <path d="M -3 12 L 12 -3 M 0 15 L 15 0" fill="none" stroke="var(--primary-text)" stroke-width="1" stroke-opacity="0.05"/>
    </pattern>
    <radialGradient id="svg3f785b2d-universal-edge-vignette" cx="50%" cy="50%" r="72%">
      <stop offset="0%" stop-color="var(--background)" stop-opacity="0"/>
      <stop offset="72%" stop-color="var(--background)" stop-opacity="0.12"/>
      <stop offset="100%" stop-color="var(--primary-text)" stop-opacity="0.08"/>
    </radialGradient>
    <linearGradient id="svg3f785b2d-universal-surface-sheen" x1="0%" y1="0%" x2="100%" y2="100%">
      <stop offset="0%" stop-color="var(--art-sheen)" stop-opacity="var(--art-sheen-opacity)"/>
      <stop offset="46%" stop-color="var(--art-sheen)" stop-opacity="0.035"/>
      <stop offset="100%" stop-color="var(--art-panel-tint)" stop-opacity="0.14"/>
    </linearGradient>
    <radialGradient id="svg3f785b2d-universal-icon-aura" cx="50%" cy="42%" r="64%">
      <stop offset="0%" stop-color="var(--art-glow)" stop-opacity="var(--art-glow-opacity)"/>
      <stop offset="100%" stop-color="var(--background)" stop-opacity="0"/>
    </radialGradient>
    <filter id="svg3f785b2d-text-glow" x="-20%" y="-20%" width="140%" height="140%">
      <feDropShadow dx="0" dy="0" stdDeviation="2" flood-color="#000000" flood-opacity="0.4"/>
    </filter>
    <filter id="svg3f785b2d-shadow" x="-30%" y="-30%" width="160%" height="160%">
      <feDropShadow dx="0" dy="2" stdDeviation="3" flood-color="#000000" flood-opacity="0.08"/>
      <feDropShadow dx="0" dy="6" stdDeviation="10" flood-color="#000000" flood-opacity="0.12"/>
    </filter>
    <marker id="svg3f785b2d-arrowhead" markerWidth="10" markerHeight="7" refX="9" refY="3.5" orient="auto" markerUnits="strokeWidth">
      <polygon points="0 0, 10 3.5, 0 7" fill="var(--muted-text)" opacity="0.6"/>
    </marker>
  </defs>
  <rect width="100%" height="100%" fill="var(--background)" id="CANVAS_BG"/>
  <rect width="100%" height="100%" fill="url(#svg3f785b2d-napkin-hatch)"/>
  <rect id="UNIVERSAL_EDGE_VIGNETTE" width="100%" height="100%" fill="url(#svg3f785b2d-universal-edge-vignette)" opacity="0.62"/>
  <text id="TITLE" x="960.0" y="59" text-anchor="middle" font-weight="700" font-size="63" fill="#0f172a" style="font-size: 60px; font-family: Inter, Segoe UI, Kalam, Roboto, Helvetica, Arial, sans-serif; font-weight: 700; letter-spacing:-1.2px;" data-final-font-size="60">
    <tspan x="960.0" dy="68.00px">Celestial Bodies from Reef Life</tspan>
  </text>
  <rect id="TITLE_FRAME" x="134" y="59" width="1652" height="103" fill="none"/>
  <g id="DIAGRAM_SCALER" transform="translate(50.3, 33.8) scale(0.95)">
    <g transform="translate(495.0, 390.0)">
      <rect id="ITEM_1_BG" x="-375" y="-120" width="750" height="240" rx="22" fill="var(--accent-5)" stroke="var(--accent-1)" stroke-width="2" fill-opacity="1.0"/>
      <circle cx="-240" cy="0" r="50" fill="var(--accent-1)" opacity="0.15"/>
      <g transform="translate(-90.0, 0.0)">
        <text id="ITEM_1_HEAD" text-anchor="start" font-weight="bold" font-size="36" fill="var(--primary-text)" x="-6.0" y="-84.0" data-bg-id="ITEM_1_BG" fill-opacity="1.0" style="font-size: 30px; font-family: Inter, Segoe UI, Kalam, Roboto, Helvetica, Arial, sans-serif; font-weight: 700; letter-spacing:-0.4px;" data-final-font-size="30">
          <tspan x="-6.0" dy="33.25px">Sun</tspan>
        </text>
        <rect id="ITEM_1_HEAD_FRAME" x="-6" y="-84" width="390" height="50" fill="none"/>
        <text id="ITEM_1_BODY" text-anchor="start" font-size="24" fill="var(--primary-text)" x="-8.0" y="-28.0" data-bg-id="ITEM_1_BG" style="font-size: 26px; font-family: Inter, Segoe UI, Kalam, Roboto, Helvetica, Arial, sans-serif; font-weight: 400;" data-final-font-size="26">
          <tspan x="-8.0" dy="36.84px">Formed by the larger of the</tspan>
          <tspan x="-8.0" dy="29.90px">two snails</tspan>
        </text>
        <rect id="ITEM_1_BODY_FRAME" x="-8" y="-28" width="460" height="140" fill="none"/>
      </g>
      <circle id="ITEM_1_PAD" cx="-245" cy="0.0" r="48" fill="var(--icon-pad-bg)" stroke="var(--primary-text)" opacity="0.9" fill-opacity="0.9" stroke-width="2"/>
      <circle id="ITEM_1_PAD_INNER" cx="-245" cy="0.0" r="37.44" fill="var(--accent-5)" fill-opacity="0.22"/>
      <circle cx="-245" cy="0.0" r="38" fill="none" stroke="var(--accent-1)" stroke-width="3" stroke-dasharray="6 4"/>
      <g id="ITEM_1_ICON" transform="translate(-283, -38)" data-icon-size="76" stroke-dasharray="6 4">
        <g transform="translate(-5.428571428571429,-5.428571428571429) scale(2.7142857142857144)">
          <path d="M26.33 30H18.3789L16.5352 29.2148L14.3008 30H5.67C4.63319 30 3.69812 29.5722 3.03132 28.8831L3.38342 25.8389L2 18.3313V5.67C2 3.64 3.64 2 5.67 2H16.5156L23.5147 4.15168L29.7588 4.35657C29.9147 4.7642 30 5.20695 30 5.67V6.17969L28.497 9.60405L30 11.0547V26.33C30 28.36 28.36 30 26.33 30Z" fill="#321B41"/>
          <path d="M26.33 2H16.5C13.5 4.93 11.46 7.81 9.67 10.34C7.28 13.73 5.44 16.33 2 18.32V26.33C2 27.32 2.4 28.22 3.04 28.89C11.09 25.64 14.52 20.81 17.84 16.11C20.72 12.03 23.45 8.17 29.75 4.36C29.22 2.98 27.9 2 26.33 2ZM14.29 30H18.39C20.59 20.68 24.88 14.99 30 11.06V6.15997C23.16 10.64 17.01 17.53 14.29 30ZM7.98999 5.5C7.98999 5.77614 7.76613 6 7.48999 6C7.21385 6 6.98999 5.77614 6.98999 5.5C6.98999 5.22386 7.21385 5 7.48999 5C7.76613 5 7.98999 5.22386 7.98999 5.5ZM25.99 19.5C25.99 19.7761 25.7661 20 25.49 20C25.2138 20 24.99 19.7761 24.99 19.5C24.99 19.2239 25.2138 19 25.49 19C25.7661 19 25.99 19.2239 25.99 19.5ZM22.49 26C22.7661 26 22.99 25.7761 22.99 25.5C22.99 25.2239 22.7661 25 22.49 25C22.2138 25 21.99 25.2239 21.99 25.5C21.99 25.7761 22.2138 26 22.49 26ZM27.99 24.5C27.99 24.7761 27.7661 25 27.49 25C27.2138 25 26.99 24.7761 26.99 24.5C26.99 24.2239 27.2138 24 27.49 24C27.7661 24 27.99 24.2239 27.99 24.5ZM4.48999 11C4.76613 11 4.98999 10.7761 4.98999 10.5C4.98999 10.2239 4.76613 10 4.48999 10C4.21385 10 3.98999 10.2239 3.98999 10.5C3.98999 10.7761 4.21385 11 4.48999 11Z" fill="#0074BA"/>
          <path d="M15.8601 8.78999L15.4901 8.61C15.4401 8.59 15.4001 8.55 15.3801 8.49999L15.2001 8.13C15.1101 7.95 14.8601 7.95 14.7801 8.13L14.6201 8.46999C14.6001 8.51999 14.5601 8.55999 14.5101 8.57999L14.1201 8.76999C13.9501 8.86 13.9501 9.11 14.1201 9.19L14.4801 9.36C14.5301 9.38 14.5701 9.41999 14.5901 9.46999L14.7801 9.86C14.8701 10.03 15.1101 10.03 15.2001 9.86L15.3801 9.48999C15.4001 9.43999 15.4401 9.4 15.4901 9.38L15.8601 9.19999C16.0401 9.11999 16.0401 8.86999 15.8601 8.78999ZM10.79 19.18L10.23 18.91C10.16 18.88 10.1 18.82 10.07 18.75L9.80999 18.2C9.67999 17.94 9.29999 17.94 9.17999 18.2L8.94 18.72C8.91 18.79 8.85 18.85 8.78 18.88L8.19 19.17C7.93 19.3 7.93 19.67 8.19 19.8L8.71999 20.05C8.78999 20.08 8.85 20.14 8.88 20.21L9.17 20.79C9.3 21.05 9.67 21.05 9.8 20.79L10.07 20.23C10.1 20.16 10.16 20.1 10.23 20.07L10.79 19.8C11.06 19.68 11.06 19.3 10.79 19.18ZM21.4901 17.61L21.8601 17.79C22.0401 17.87 22.0401 18.12 21.8601 18.2L21.4901 18.38C21.4401 18.4 21.4001 18.44 21.3801 18.49L21.2001 18.86C21.1101 19.03 20.8701 19.03 20.7801 18.86L20.5901 18.47C20.5701 18.42 20.5301 18.38 20.4801 18.36L20.1201 18.19C19.9501 18.11 19.9501 17.86 20.1201 17.77L20.5101 17.58C20.5601 17.56 20.6001 17.52 20.6201 17.47L20.7801 17.13C20.8601 16.95 21.1101 16.95 21.2001 17.13L21.3801 17.5C21.4001 17.55 21.4401 17.59 21.4901 17.61Z" fill="#FCD53F"/>
          <path d="M22.4901 6.61L22.8601 6.78999C23.0401 6.86999 23.0401 7.11999 22.8601 7.19999L22.4901 7.38C22.4401 7.4 22.4001 7.43999 22.3801 7.48999L22.2001 7.86C22.1101 8.03 21.8701 8.03 21.7801 7.86L21.5901 7.46999C21.5701 7.41999 21.5301 7.38 21.4801 7.36L21.1201 7.19C20.9501 7.11 20.9501 6.86 21.1201 6.76999L21.5101 6.57999C21.5601 6.55999 21.6001 6.51999 21.6201 6.46999L21.7801 6.13C21.8601 5.95 22.1101 5.95 22.2001 6.13L22.3801 6.49999C22.4001 6.55 22.4401 6.59 22.4901 6.61ZM14.4901 16.61L14.8601 16.79C15.0401 16.87 15.0401 17.12 14.8601 17.2L14.4901 17.38C14.4401 17.4 14.4001 17.44 14.3801 17.49L14.2001 17.86C14.1101 18.03 13.8701 18.03 13.7801 17.86L13.5901 17.47C13.5701 17.42 13.5301 17.38 13.4801 17.36L13.1201 17.19C12.9501 17.11 12.9501 16.86 13.1201 16.77L13.5101 16.58C13.5601 16.56 13.6001 16.52 13.6201 16.47L13.7801 16.13C13.8601 15.95 14.1101 15.95 14.2001 16.13L14.3801 16.5C14.4001 16.55 14.4401 16.59 14.4901 16.61Z" fill="#26EAFC"/>
          <path d="M18.49 12C18.7661 12 18.99 11.7761 18.99 11.5C18.99 11.2239 18.7661 11 18.49 11C18.2138 11 17.99 11.2239 17.99 11.5C17.99 11.7761 18.2138 12 18.49 12ZM10.49 14C10.7661 14 10.99 13.7761 10.99 13.5C10.99 13.2239 10.7661 13 10.49 13C10.2138 13 9.98999 13.2239 9.98999 13.5C9.98999 13.7761 10.2138 14 10.49 14ZM18.99 23.5C18.99 23.7761 18.7661 24 18.49 24C18.2138 24 17.99 23.7761 17.99 23.5C17.99 23.2239 18.2138 23 18.49 23C18.7661 23 18.99 23.2239 18.99 23.5Z" fill="#26EAFC"/>
          <path fill-rule="evenodd" clip-rule="evenodd" d="M21.99 3.5C21.99 3.77614 21.7661 4 21.49 4C21.2138 4 20.99 3.77614 20.99 3.5C20.99 3.22386 21.2138 3 21.49 3C21.7661 3 21.99 3.22386 21.99 3.5ZM26.49 12C26.7661 12 26.99 11.7761 26.99 11.5C26.99 11.2239 26.7661 11 26.49 11C26.2138 11 25.99 11.2239 25.99 11.5C25.99 11.7761 26.2138 12 26.49 12ZM5.48999 24C5.21385 24 4.98999 23.7761 4.98999 23.5C4.98999 23.2239 5.21385 23 5.48999 23C5.76613 23 5.98999 23.2239 5.98999 23.5C5.98999 23.7761 5.76613 24 5.48999 24Z" fill="#F4F4F4"/>
        </g>
      </g>
    </g>
    <g transform="translate(1425.0, 390.0)">
      <rect id="ITEM_2_BG" x="-375" y="-120" width="750" height="240" rx="22" fill="var(--accent-6)" stroke="var(--accent-2)" stroke-width="2" fill-opacity="1.0"/>
      <circle cx="-240" cy="0" r="50" fill="var(--accent-1)" opacity="0.15"/>
      <g transform="translate(-90.0, 0.0)">
        <text id="ITEM_2_HEAD" text-anchor="start" font-weight="bold" font-size="36" fill="var(--inverse-text)" x="-6.0" y="-84.0" data-bg-id="ITEM_2_BG" fill-opacity="1.0" style="font-size: 30px; font-family: Inter, Segoe UI, Kalam, Roboto, Helvetica, Arial, sans-serif; font-weight: 700; letter-spacing:-0.4px;" data-final-font-size="30">
          <tspan x="-6.0" dy="33.25px">Moon</tspan>
        </text>
        <rect id="ITEM_2_HEAD_FRAME" x="-6" y="-84" width="390" height="50" fill="none"/>
        <text id="ITEM_2_BODY" text-anchor="start" font-size="24" fill="var(--inverse-text)" x="-8.0" y="-28.0" data-bg-id="ITEM_2_BG" style="font-size: 26px; font-family: Inter, Segoe UI, Kalam, Roboto, Helvetica, Arial, sans-serif; font-weight: 400;" data-final-font-size="26">
          <tspan x="-8.0" dy="36.84px">Formed by the smaller of the</tspan>
          <tspan x="-8.0" dy="29.90px">two snails</tspan>
        </text>
        <rect id="ITEM_2_BODY_FRAME" x="-8" y="-28" width="460" height="140" fill="none"/>
      </g>
      <circle id="ITEM_2_PAD" cx="-245" cy="0.0" r="48" fill="var(--icon-pad-bg)" stroke="var(--primary-text)" opacity="0.9" fill-opacity="0.9" stroke-width="2"/>
      <circle id="ITEM_2_PAD_INNER" cx="-245" cy="0.0" r="37.44" fill="var(--accent-6)" fill-opacity="0.22"/>
      <circle cx="-245" cy="0.0" r="38" fill="none" stroke="var(--accent-2)" stroke-width="3" stroke-dasharray="6 4"/>
      <g id="ITEM_2_ICON" transform="translate(-283, -38)" data-icon-size="76" stroke-dasharray="6 4">
        <g transform="translate(-7.037037037037036,-7.037037037037036) scale(3.753086419753086)" vector-effect="non-scaling-stroke" stroke-width="2.62" stroke-linecap="round" stroke-linejoin="round" stroke-opacity="1.0">
          <path d="M20.985 12.486a9 9 0 1 1-9.473-9.472c.405-.022.617.46.402.803a6 6 0 0 0 8.268 8.268c.344-.215.825-.004.803.401" vector-effect="non-scaling-stroke" fill="none" stroke="#f1f5f9"/>
        </g>
      </g>
    </g>
    <g transform="translate(495.0, 750.0)">
      <rect id="ITEM_3_BG" x="-375" y="-120" width="750" height="240" rx="22" fill="var(--accent-1)" stroke="var(--accent-3)" stroke-width="2" fill-opacity="1.0"/>
      <circle cx="-240" cy="0" r="50" fill="var(--accent-1)" opacity="0.15"/>
      <g transform="translate(-90.0, 0.0)">
        <text id="ITEM_3_HEAD" text-anchor="start" font-weight="bold" font-size="36" fill="var(--primary-text)" x="-6.0" y="-84.0" data-bg-id="ITEM_3_BG" fill-opacity="1.0" style="font-size: 30px; font-family: Inter, Segoe UI, Kalam, Roboto, Helvetica, Arial, sans-serif; font-weight: 700; letter-spacing:-0.4px;" data-final-font-size="30">
          <tspan x="-6.0" dy="33.25px">Sea</tspan>
        </text>
        <rect id="ITEM_3_HEAD_FRAME" x="-6" y="-84" width="390" height="50" fill="none"/>
        <text id="ITEM_3_BODY" text-anchor="start" font-size="24" fill="var(--primary-text)" x="-8.0" y="-28.0" data-bg-id="ITEM_3_BG" style="font-size: 26px; font-family: Inter, Segoe UI, Kalam, Roboto, Helvetica, Arial, sans-serif; font-weight: 400;" data-final-font-size="26">
          <tspan x="-8.0" dy="36.84px">Created from the sweat of the</tspan>
          <tspan x="-8.0" dy="29.90px">exhausted worm</tspan>
        </text>
        <rect id="ITEM_3_BODY_FRAME" x="-8" y="-28" width="460" height="140" fill="none"/>
      </g>
      <circle id="ITEM_3_PAD" cx="-245" cy="0.0" r="48" fill="var(--icon-pad-bg)" stroke="var(--primary-text)" opacity="0.9" fill-opacity="0.9" stroke-width="2"/>
      <circle id="ITEM_3_PAD_INNER" cx="-245" cy="0.0" r="37.44" fill="var(--accent-1)" fill-opacity="0.22"/>
      <circle cx="-245" cy="0.0" r="38" fill="none" stroke="var(--accent-3)" stroke-width="3" stroke-dasharray="6 4"/>
      <g id="ITEM_3_ICON" transform="translate(-283, -38)" data-icon-size="76" stroke-dasharray="6 4">
        <g transform="translate(-5.428571428571429,-6.107142857142863) scale(2.7142857142857144)">
          <path d="M18.7303 8.60911V6.06653H7.03174V26.9651H26.0109V20.3841C25.4929 20.8941 24.42 21.809 22.704 22.3834C21.7762 22.6939 20.6231 22.8701 19.3753 22.9286C19.1503 22.9499 18.9223 22.9607 18.6917 22.9607C14.7286 22.9607 11.5159 19.748 11.5159 15.7849C11.5159 11.8218 14.7286 8.60901 18.6917 8.60901C18.7046 8.60901 18.7175 8.60904 18.7303 8.60911Z" fill="#26C9FC"/>
          <path d="M2.00391 15.154L2.00394 28.9922C2.00394 29.5445 2.45165 29.9922 3.00394 29.9922H28.9937C29.546 29.9922 29.9937 29.5445 29.9937 28.9922L29.9937 17.8442C27.5057 18.7649 25.9825 20.5075 24.1129 22.0289C22.3405 23.4712 20.1514 24.7191 17.0031 24.7191C12.7544 24.7191 7.80713 20.8973 7.80713 15.8858C7.80713 9.86697 12.9891 7.30096 15.8417 7.30096C16.99 7.30096 17.4804 7.54554 17.6761 7.66783L18.8867 9.31877H23.0691V8.3649C22.3965 6.46938 19.5251 2.67834 13.4203 2.67834C7.80713 2.67834 2.00391 8.3649 2.00391 15.154Z" fill="#00A6ED"/>
          <path d="M22.1939 5.86245C22.1939 6.49073 21.6846 7.00005 21.0563 7.00005C20.428 7.00005 19.9187 6.49073 19.9187 5.86245C19.9187 5.23417 20.428 4.72485 21.0563 4.72485C21.6846 4.72485 22.1939 5.23417 22.1939 5.86245Z" fill="#B4F6FC"/>
          <path d="M27.9251 10.2761C28.5534 10.2761 29.0627 9.76673 29.0627 9.13845C29.0627 8.51017 28.5534 8.00085 27.9251 8.00085C27.2968 8.00085 26.7875 8.51017 26.7875 9.13845C26.7875 9.76673 27.2968 10.2761 27.9251 10.2761Z" fill="#B4F6FC"/>
          <path d="M27.9251 16.1137C28.5534 16.1137 29.0627 15.6044 29.0627 14.9761C29.0627 14.3478 28.5534 13.8385 27.9251 13.8385C27.2968 13.8385 26.7875 14.3478 26.7875 14.9761C26.7875 15.6044 27.2968 16.1137 27.9251 16.1137Z" fill="#B4F6FC"/>
          <path d="M19.1854 14.1376C19.1854 14.7659 18.676 15.2752 18.0478 15.2752C17.4195 15.2752 16.9102 14.7659 16.9102 14.1376C16.9102 13.5093 17.4195 13 18.0478 13C18.676 13 19.1854 13.5093 19.1854 14.1376Z" fill="#B4F6FC"/>
          <path d="M25.023 13.1946C25.6513 13.1946 26.1606 12.6853 26.1606 12.057C26.1606 11.6134 25.9066 11.229 25.5361 11.0415C25.8288 10.6142 26 10.0971 26 9.54011C26 8.07111 24.8092 6.88025 23.3402 6.88025C22.4254 6.88025 21.6184 7.34206 21.1398 8.04526C20.6611 7.34206 19.8542 6.88025 18.9394 6.88025C18.1349 6.88025 17.4139 7.23738 16.9262 7.80174C16.4384 7.23738 15.7174 6.88025 14.9129 6.88025C13.4439 6.88025 12.2531 8.07111 12.2531 9.54011C12.2531 11.0091 13.4439 12.2 14.9129 12.2C15.7174 12.2 16.4384 11.8428 16.9262 11.2785C17.4139 11.8428 18.1349 12.2 18.9394 12.2C19.8542 12.2 20.6611 11.7382 21.1398 11.035C21.6184 11.7382 22.4254 12.2 23.3402 12.2C23.5282 12.2 23.7116 12.1805 23.8886 12.1434C23.9327 12.7313 24.4237 13.1946 25.023 13.1946Z" fill="#B4F6FC"/>
        </g>
      </g>
    </g>
    <g transform="translate(1425.0, 750.0)">
      <rect id="ITEM_4_BG" x="-375" y="-120" width="750" height="240" rx="22" fill="var(--accent-2)" stroke="var(--accent-4)" stroke-width="2" fill-opacity="1.0"/>
      <circle cx="-240" cy="0" r="50" fill="var(--accent-1)" opacity="0.15"/>
      <g transform="translate(-90.0, 0.0)">
        <text id="ITEM_4_HEAD" text-anchor="start" font-weight="bold" font-size="36" fill="var(--inverse-text)" x="-6.0" y="-84.0" data-bg-id="ITEM_4_BG" fill-opacity="1.0" style="font-size: 30px; font-family: Inter, Segoe UI, Kalam, Roboto, Helvetica, Arial, sans-serif; font-weight: 700; letter-spacing:-0.4px;" data-final-font-size="30">
          <tspan x="-6.0" dy="33.25px">Milky Way</tspan>
        </text>
        <rect id="ITEM_4_HEAD_FRAME" x="-6" y="-84" width="390" height="50" fill="none"/>
        <text id="ITEM_4_BODY" text-anchor="start" font-size="24" fill="var(--inverse-text)" x="-8.0" y="-28.0" data-bg-id="ITEM_4_BG" style="font-size: 26px; font-family: Inter, Segoe UI, Kalam, Roboto, Helvetica, Arial, sans-serif; font-weight: 400;" data-final-font-size="26">
          <tspan x="-8.0" dy="36.84px">Formed from the body of the</tspan>
          <tspan x="-8.0" dy="29.90px">deceased worm</tspan>
        </text>
        <rect id="ITEM_4_BODY_FRAME" x="-8" y="-28" width="460" height="140" fill="none"/>
      </g>
      <circle id="ITEM_4_PAD" cx="-245" cy="0.0" r="48" fill="var(--icon-pad-bg)" stroke="var(--primary-text)" opacity="0.9" fill-opacity="0.9" stroke-width="2"/>
      <circle id="ITEM_4_PAD_INNER" cx="-245" cy="0.0" r="37.44" fill="var(--accent-2)" fill-opacity="0.22"/>
      <circle cx="-245" cy="0.0" r="38" fill="none" stroke="var(--accent-4)" stroke-width="3" stroke-dasharray="6 4"/>
      <g id="ITEM_4_ICON" transform="translate(-283, -38)" data-icon-size="76" stroke-dasharray="6 4">
        <g transform="translate(-7.037037037037031,-7.037037037037036) scale(3.753086419753086)" vector-effect="non-scaling-stroke" stroke-width="2.62" stroke-linecap="round" stroke-linejoin="round" stroke-opacity="1.0">
          <path d="M12 3c-1.333 1 -2 2.5 -2 4.5c0 3 2 4.5 2 4.5s2 1.5 2 4.5c0 2 -.667 3.5 -2 4.5" vector-effect="non-scaling-stroke" fill="none" stroke="#f1f5f9"/>
          <path d="M19.794 16.5c-.2 -1.655 -1.165 -2.982 -2.897 -3.982c-2.597 -1.5 -4.897 -.518 -4.897 -.518s-2.299 .982 -4.897 -.518c-1.732 -1 -2.698 -2.327 -2.897 -3.982" vector-effect="non-scaling-stroke" fill="none" stroke="#f1f5f9"/>
          <path d="M19.794 7.5c-1.532 -.655 -3.165 -.482 -4.897 .518c-2.597 1.5 -2.897 3.982 -2.897 3.982s-.299 2.482 -2.897 3.982c-1.732 1 -3.365 1.173 -4.897 .518" vector-effect="non-scaling-stroke" fill="none" stroke="#f1f5f9"/>
        </g>
      </g>
    </g>
  </g>
</svg>
