<?xml version='1.0' encoding='utf-8'?>
<svg xmlns="http://www.w3.org/2000/svg" width="1920" height="1080" viewBox="0 0 1920 1080" data-theme="light">
  <style>
        @font-face {
            font-family: 'Inter';
            src: url('assets/fonts/Inter-Regular.ttf') format('truetype');
            font-weight: 400;
            font-style: normal;
            font-display: swap;
        }
        @font-face {
            font-family: 'Inter';
            src: url('assets/fonts/Inter-Bold.ttf') format('truetype');
            font-weight: 600;
            font-style: normal;
            font-display: swap;
        }
        @font-face {
            font-family: 'Inter';
            src: url('assets/fonts/Inter-Bold.ttf') format('truetype');
            font-weight: 800;
            font-style: normal;
            font-display: swap;
        }
        
:root {
    --background: #f8fafc;
    --panel: #ffffff;
    --primary-text: #0f172a;
    --muted-text: #64748b;
    --inverse-text: #ffffff;
    --border: #e2e8f0;
    --shadow-color: #000000;
    --icon-pad-bg: #1e293b;
    --art-glow: #0891b2;
    --art-glow-opacity: 0.10;
    --art-sheen: #ffffff;
    --art-sheen-opacity: 0.34;
    --art-shadow: #0f172a;
    --art-shadow-opacity: 0.14;
    --art-muted-line: #94a3b8;
    --art-panel-tint: #f1f5f9;
    --font-family: 'Inter', 'Segoe UI', 'Kalam', Roboto, Helvetica, Arial, sans-serif;
    --radius-xl: 16px;
    --font-family-headline: 'Inter', 'Segoe UI', 'Kalam', Roboto, Helvetica, Arial, sans-serif;
    --font-family-body: 'Inter', 'Segoe UI', 'Kalam', Roboto, Helvetica, Arial, sans-serif;
    --font-heading: 'Inter', 'Segoe UI', 'Kalam', Roboto, Helvetica, Arial, sans-serif;
    --font-body: 'Inter', 'Segoe UI', 'Kalam', Roboto, Helvetica, Arial, sans-serif;
    --font-size-h1: 56px;
    --font-size-h2: 40px;
    --font-size-h3: 28px;
    --font-size-body: 24px;
    --font-size-caption: 18px;
    --secondary-text: var(--muted-text);
    --panel-border: var(--border);
    --font-weight-normal: 400;
    --font-weight-medium: 500;
    --font-weight-semibold: 600;
    --font-weight-bold: 700;
    --spacing-gutter-pct: 0.07;
    --spacing-top-pct: 0.15;
    --spacing-bottom-pct: 0.07;
    --spacing-title-y-pct: 0.055;
    --accent-1: #0891b2;
    --accent-2: #0284c7;
    --accent-3: #2563eb;
    --accent-4: #4f46e5;
    --accent-5: #7c3aed;
    --accent-6: #0d9488;
}
:root[data-theme="dark"] {
    --background: #0f172a;
    --panel: #1e293b;
    --primary-text: #f1f5f9;
    --muted-text: #94a3b8;
    --inverse-text: #0f172a;
    --border: #334155;
    --shadow-color: #000000;
    --icon-pad-bg: #1e293b;
    --art-glow: #7dd3fc;
    --art-glow-opacity: 0.18;
    --art-sheen: #ffffff;
    --art-sheen-opacity: 0.18;
    --art-shadow: #000000;
    --art-shadow-opacity: 0.28;
    --art-muted-line: #64748b;
    --art-panel-tint: #1e293b;
    --accent-1: #22d3ee;
    --accent-2: #38bdf8;
    --accent-3: #60a5fa;
    --accent-4: #818cf8;
    --accent-5: #a78bfa;
    --accent-6: #2dd4bf;
}
:root[data-theme="light"] {
    --background: #f8fafc;
    --panel: #ffffff;
    --primary-text: #0f172a;
    --muted-text: #64748b;
    --inverse-text: #ffffff;
    --border: #e2e8f0;
    --shadow-color: #000000;
    --icon-pad-bg: #1e293b;
    --art-glow: #0891b2;
    --art-glow-opacity: 0.10;
    --art-sheen: #ffffff;
    --art-sheen-opacity: 0.34;
    --art-shadow: #0f172a;
    --art-shadow-opacity: 0.14;
    --art-muted-line: #94a3b8;
    --art-panel-tint: #f1f5f9;
    --accent-1: #0891b2;
    --accent-2: #0284c7;
    --accent-3: #2563eb;
    --accent-4: #4f46e5;
    --accent-5: #7c3aed;
    --accent-6: #0d9488;
}</style>
  <rect x="0" y="0" width="1.92E+3" height="1.08E+3" fill="#252a34" stroke="none" id="programmatic_background"/>
  <line id="HEADER_DECOR" x1="960.0" x2="1080.0" y1="90.0" y2="90.0" stroke="var(--accent-1)" stroke-width="6" stroke-linecap="round"/>
  <defs>
    <pattern id="svgf03f117a-napkin-hatch" patternUnits="userSpaceOnUse" width="12" height="12">
      <path d="M -3 12 L 12 -3 M 0 15 L 15 0" fill="none" stroke="var(--primary-text)" stroke-width="1" stroke-opacity="0.05"/>
    </pattern>
    <filter id="svgf03f117a-shadow" x="-30%" y="-30%" width="160%" height="160%">
      <feDropShadow dx="0" dy="2" stdDeviation="3" flood-color="#000000" flood-opacity="0.08"/>
      <feDropShadow dx="0" dy="6" stdDeviation="10" flood-color="#000000" flood-opacity="0.12"/>
    </filter>
    <marker id="svgf03f117a-arrowhead" markerWidth="10" markerHeight="10" refX="9" refY="5" orient="auto">
      <path d="M 0 0 L 10 5 L 0 10 Z" fill="var(--accent-1)"/>
    </marker>
    <filter id="svgf03f117a-text-glow" x="-20%" y="-20%" width="140%" height="140%">
      <feDropShadow dx="0" dy="0" stdDeviation="2" flood-color="#000000" flood-opacity="0.4"/>
    </filter>
    <path id="svgf03f117a-hex-shape" d="M 129.9 0 L 259.8 75 L 259.8 225 L 129.9 300 L 0 225 L 0 75 Z"/>
    <filter id="svgf03f117a-glow" x="-30%" y="-30%" width="210%" height="210%">
      <feDropShadow dx="0" dy="0" stdDeviation="15" flood-color="var(--accent-1)" flood-opacity="0.1"/>
    </filter>
    <filter id="svgf03f117a-hub-glow" x="-50%" y="-50%" width="200%" height="200%">
      <feGaussianBlur stdDeviation="15" result="blur"/>
      <feComposite in_="SourceGraphic" in2="blur" operator="over"/>
    </filter>
    <radialGradient id="svgf03f117a-universal-edge-vignette" cx="50%" cy="50%" r="72%">
      <stop offset="0%" stop-color="var(--background)" stop-opacity="0"/>
      <stop offset="72%" stop-color="var(--background)" stop-opacity="0.12"/>
      <stop offset="100%" stop-color="var(--primary-text)" stop-opacity="0.08"/>
    </radialGradient>
    <linearGradient id="svgf03f117a-universal-surface-sheen" x1="0%" y1="0%" x2="100%" y2="100%">
      <stop offset="0%" stop-color="var(--art-sheen)" stop-opacity="var(--art-sheen-opacity)"/>
      <stop offset="46%" stop-color="var(--art-sheen)" stop-opacity="0.035"/>
      <stop offset="100%" stop-color="var(--art-panel-tint)" stop-opacity="0.14"/>
    </linearGradient>
    <radialGradient id="svgf03f117a-universal-icon-aura" cx="50%" cy="42%" r="64%">
      <stop offset="0%" stop-color="var(--art-glow)" stop-opacity="var(--art-glow-opacity)"/>
      <stop offset="100%" stop-color="var(--background)" stop-opacity="0"/>
    </radialGradient>
  </defs>
  <rect width="100%" height="100%" fill="var(--background)" id="CANVAS_BG"/>
  <rect width="100%" height="100%" fill="url(#svgf03f117a-napkin-hatch)"/>
  <rect id="UNIVERSAL_EDGE_VIGNETTE" width="100%" height="100%" fill="url(#svgf03f117a-universal-edge-vignette)" opacity="0.62"/>
  <text id="TITLE" x="960.0" y="59" text-anchor="middle" font-weight="800" font-size="72" fill="#0f172a" style="font-size: 60px; font-family: Inter, Segoe UI, Kalam, Roboto, Helvetica, Arial, sans-serif; font-weight: 700; letter-spacing:-1.2px;" data-final-font-size="60">
    <tspan x="960.0" dy="68.00px">Ingredients of Modern Folklore</tspan>
  </text>
  <rect id="TITLE_FRAME" x="134" y="59" width="1652" height="103" fill="none"/>
  <g id="DIAGRAM_SCALER" transform="translate(192, 150) scale(0.80)">
    <g transform="translate(960, 600)">
      <use href="#svgf03f117a-hex-shape" id="ITEM_1_BG" transform="translate(-130, -150)" fill="var(--accent-2)" fill_opacity="0.15" stroke="var(--accent-1)" filter="url(#svgf03f117a-hub-glow)" stroke-width="4" fill-opacity="1.0"/>
      <circle cx="0" cy="-35" r="70" fill="var(--background)" opacity="0.4"/>
      <g transform="translate(0, 50)">
        <text id="ITEM_1_HEAD" x="0.0" y="-35.0" text-anchor="middle" font-weight="bold" font-size="40" fill="var(--primary-text)" data-bg-id="ITEM_1_BG" fill-opacity="1.0" style="font-size: 30px; font-family: Inter, Segoe UI, Kalam, Roboto, Helvetica, Arial, sans-serif; font-weight: 700; letter-spacing:-0.4px;" data-final-font-size="30">
          <tspan x="0.0" dy="33.25px">Visual Evidence</tspan>
        </text>
        <rect id="ITEM_1_HEAD_FRAME" x="-190" y="-35" width="380" height="50" fill="none"/>
        <text id="ITEM_1_BODY" x="0.0" y="10.0" text-anchor="middle" font-size="16" fill="var(--primary-text)" data-bg-id="ITEM_1_BG" style="font-size: 26px; font-family: Inter, Segoe UI, Kalam, Roboto, Helvetica, Arial, sans-serif; font-weight: 400;" data-final-font-size="26">
          <tspan x="0.0" dy="32.84px">Photographs provide a tangible</tspan>
          <tspan x="0.0" dy="29.90px">anchor for stories</tspan>
        </text>
        <rect id="ITEM_1_BODY_FRAME" x="-190" y="10" width="380" height="120" fill="none"/>
      </g>
      <circle id="ITEM_1_PAD" cx="0" cy="-35" r="55" fill="var(--icon-pad-bg)" stroke="var(--primary-text)" opacity="0.9" fill-opacity="0.9" stroke-width="2"/>
      <circle id="ITEM_1_PAD_INNER" cx="0" cy="-35" r="42.90" fill="var(--accent-2)" fill-opacity="0.22"/>
      <circle cx="0" cy="-35" r="44.0" fill="none" stroke="var(--accent-1)" stroke-width="3" stroke-dasharray="6 4"/>
      <g id="ITEM_1_ICON" transform="translate(-45, -80)" data-icon-size="90" stroke-dasharray="6 4">
        <g transform="translate(-6.428571428571429,-20.89285714285715) scale(3.2142857142857144)">
          <path d="M5.5 11C5.22386 11 5 11.2239 5 11.5V13H9V11.5C9 11.2239 8.77614 11 8.5 11H5.5Z" fill="#D3D3D3"/>
          <path d="M21.5 11C21.2239 11 21 11.2239 21 11.5V13H27V11.5C27 11.2239 26.7761 11 26.5 11H21.5Z" fill="#D3D3D3"/>
          <path d="M2 14C2 12.8954 2.89543 12 4 12H28C29.1046 12 30 12.8954 30 14V16.5L28 22L30 27.5V28C30 29.1046 29.1046 30 28 30H4C2.89543 30 2 29.1046 2 28V27.5L3.5 22L2 16.5V14Z" fill="#E6E6E6"/>
          <path d="M2 16.5C2 16.2239 2.22386 16 2.5 16H29.5C29.7761 16 30 16.2239 30 16.5V27.5C30 27.7761 29.7761 28 29.5 28H2.5C2.22386 28 2 27.7761 2 27.5V16.5Z" fill="#533566"/>
          <path d="M22 22C22 25.3137 19.3137 28 16 28C12.6863 28 10 25.3137 10 22C10 18.6863 12.6863 16 16 16C19.3137 16 22 18.6863 22 22Z" fill="#321B41"/>
          <path d="M16 27C18.7614 27 21 24.7614 21 22C21 19.2386 18.7614 17 16 17C13.2386 17 11 19.2386 11 22C11 24.7614 13.2386 27 16 27ZM16 29C12.134 29 9 25.866 9 22C9 18.134 12.134 15 16 15C19.866 15 23 18.134 23 22C23 25.866 19.866 29 16 29Z" fill="#9B9B9B"/>
          <path d="M18.5 22C18.5 23.3807 17.3807 24.5 16 24.5C14.6193 24.5 13.5 23.3807 13.5 22C13.5 20.6193 14.6193 19.5 16 19.5C17.3807 19.5 18.5 20.6193 18.5 22Z" fill="#433B6B"/>
          <path d="M19.0825 19.875C19.4967 20.5924 19.4448 21.3979 18.9665 21.674C18.4882 21.9501 17.7647 21.5924 17.3505 20.875C16.9363 20.1575 16.9882 19.3521 17.4665 19.0759C17.9448 18.7998 18.6683 19.1575 19.0825 19.875Z" fill="white"/>
        </g>
      </g>
    </g>
    <g transform="translate(960.0, 240.0)">
      <use href="#svgf03f117a-hex-shape" id="ITEM_2_BG" transform="translate(-130, -150)" fill="var(--accent-3)" fill_opacity="0.12" stroke="var(--accent-2)" stroke-width="3" fill-opacity="1.0"/>
      <circle cx="0" cy="0" r="75" fill="var(--background)" opacity="0.5"/>
      <line x1="0" y1="0" x2="-0.0" y2="225.0" stroke="var(--muted-text)" opacity="0.6" stroke-width="2.5" stroke-dasharray="4 4"/>
      <g transform="translate(220.0, -15.0)">
        <text id="ITEM_2_HEAD" x="10.0" y="-35.0" text-anchor="start" font-weight="bold" font-size="42" fill="var(--primary-text)" data-bg-id="ITEM_2_BG" fill-opacity="1.0" style="font-size: 30px; font-family: Inter, Segoe UI, Kalam, Roboto, Helvetica, Arial, sans-serif; font-weight: 700; letter-spacing:-0.4px;" data-final-font-size="30">
          <tspan x="10.0" dy="33.25px">Digital Sharing</tspan>
        </text>
        <rect id="ITEM_2_HEAD_FRAME" x="10" y="-35" width="380" height="50" fill="none"/>
        <text id="ITEM_2_BODY" x="10.0" y="10.0" text-anchor="start" font-size="28" fill="var(--primary-text)" data-bg-id="ITEM_2_BG" style="font-size: 26px; font-family: Inter, Segoe UI, Kalam, Roboto, Helvetica, Arial, sans-serif; font-weight: 400;" data-final-font-size="26">
          <tspan x="10.0" dy="32.84px">Rapid internet distribution</tspan>
          <tspan x="10.0" dy="29.90px">accelerates mystery growth</tspan>
        </text>
        <rect id="ITEM_2_BODY_FRAME" x="10" y="10" width="380" height="120" fill="none"/>
      </g>
      <circle id="ITEM_2_PAD" cx="0" cy="0" r="50" fill="var(--icon-pad-bg)" stroke="var(--primary-text)" opacity="0.9" fill-opacity="0.9" stroke-width="2"/>
      <circle id="ITEM_2_PAD_INNER" cx="0" cy="0" r="39.00" fill="var(--accent-3)" fill-opacity="0.22"/>
      <circle cx="0" cy="0" r="40.0" fill="none" stroke="var(--accent-2)" stroke-width="3" stroke-dasharray="6 4"/>
      <g id="ITEM_2_ICON" transform="translate(-45, -45)" data-icon-size="90" stroke-dasharray="6 4">
        <g transform="translate(-3.813559322033898,-3.813559322033898) scale(4.067796610169491)" vector-effect="non-scaling-stroke" stroke-width="2.79" stroke-linecap="round" stroke-linejoin="round" stroke-opacity="1.0">
          <rect width="20" height="8" x="2" y="14" rx="2" vector-effect="non-scaling-stroke" fill="none" stroke="#f1f5f9"/>
          <path d="M6.01 18H6" vector-effect="non-scaling-stroke" fill="none" stroke="#f1f5f9"/>
          <path d="M10.01 18H10" vector-effect="non-scaling-stroke" fill="none" stroke="#f1f5f9"/>
          <path d="M15 10v4" vector-effect="non-scaling-stroke" fill="none" stroke="#f1f5f9"/>
          <path d="M17.84 7.17a4 4 0 0 0-5.66 0" vector-effect="non-scaling-stroke" fill="none" stroke="#f1f5f9"/>
          <path d="M20.66 4.34a8 8 0 0 0-11.31 0" vector-effect="non-scaling-stroke" fill="none" stroke="#f1f5f9"/>
        </g>
      </g>
    </g>
    <g transform="translate(1320.0, 600.0)">
      <use href="#svgf03f117a-hex-shape" id="ITEM_3_BG" transform="translate(-130, -150)" fill="var(--accent-4)" fill_opacity="0.12" stroke="var(--accent-3)" stroke-width="3" fill-opacity="1.0"/>
      <circle cx="0" cy="0" r="75" fill="var(--background)" opacity="0.5"/>
      <line x1="0" y1="0" x2="-225.0" y2="-0.0" stroke="var(--muted-text)" opacity="0.6" stroke-width="2.5" stroke-dasharray="4 4"/>
      <g transform="translate(220.0, -15.0)">
        <text id="ITEM_3_HEAD" x="10.0" y="-35.0" text-anchor="start" font-weight="bold" font-size="42" fill="var(--primary-text)" data-bg-id="ITEM_3_BG" fill-opacity="1.0" style="font-size: 30px; font-family: Inter, Segoe UI, Kalam, Roboto, Helvetica, Arial, sans-serif; font-weight: 700; letter-spacing:-0.4px;" data-final-font-size="30">
          <tspan x="10.0" dy="33.25px">Cultural Roots</tspan>
        </text>
        <rect id="ITEM_3_HEAD_FRAME" x="10" y="-35" width="380" height="50" fill="none"/>
        <text id="ITEM_3_BODY" x="10.0" y="10.0" text-anchor="start" font-size="28" fill="var(--primary-text)" data-bg-id="ITEM_3_BG" style="font-size: 26px; font-family: Inter, Segoe UI, Kalam, Roboto, Helvetica, Arial, sans-serif; font-weight: 400;" data-final-font-size="26">
          <tspan x="10.0" dy="32.84px">Local traditions of spirits</tspan>
          <tspan x="10.0" dy="29.90px">influence modern perception</tspan>
        </text>
        <rect id="ITEM_3_BODY_FRAME" x="10" y="10" width="380" height="120" fill="none"/>
      </g>
      <circle id="ITEM_3_PAD" cx="0" cy="0" r="50" fill="var(--icon-pad-bg)" stroke="var(--primary-text)" opacity="0.9" fill-opacity="0.9" stroke-width="2"/>
      <circle id="ITEM_3_PAD_INNER" cx="0" cy="0" r="39.00" fill="var(--accent-4)" fill-opacity="0.22"/>
      <circle cx="0" cy="0" r="40.0" fill="none" stroke="var(--accent-3)" stroke-width="3" stroke-dasharray="6 4"/>
      <g id="ITEM_3_ICON" transform="translate(-45, -45)" data-icon-size="90" stroke-dasharray="6 4">
        <g transform="translate(-6.428571428571429,-6.428571428571429) scale(3.2142857142857144)" vector-effect="non-scaling-stroke" fill="#f1f5f9" fill-opacity="1.0" stroke="none">
          <path fill="#f1f5f9" d="M20 28V6l-4-4l-4 4v22H2v2h28v-2Zm-6 0V6.828l2-2l2 2V28Z" vector-effect="non-scaling-stroke" stroke="none"/>
        </g>
      </g>
    </g>
    <g transform="translate(960.0, 960.0)">
      <use href="#svgf03f117a-hex-shape" id="ITEM_4_BG" transform="translate(-130, -150)" fill="var(--accent-5)" fill_opacity="0.12" stroke="var(--accent-4)" stroke-width="3" fill-opacity="1.0"/>
      <circle cx="0" cy="0" r="75" fill="var(--background)" opacity="0.5"/>
      <line x1="0" y1="0" x2="-0.0" y2="-225.0" stroke="var(--muted-text)" opacity="0.6" stroke-width="2.5" stroke-dasharray="4 4"/>
      <g transform="translate(220.0, -15.0)">
        <text id="ITEM_4_HEAD" x="10.0" y="-35.0" text-anchor="start" font-weight="bold" font-size="42" fill="var(--primary-text)" data-bg-id="ITEM_4_BG" fill-opacity="1.0" style="font-size: 30px; font-family: Inter, Segoe UI, Kalam, Roboto, Helvetica, Arial, sans-serif; font-weight: 700; letter-spacing:-0.4px;" data-final-font-size="30">
          <tspan x="10.0" dy="33.25px">Ambiguous Context</tspan>
        </text>
        <rect id="ITEM_4_HEAD_FRAME" x="10" y="-35" width="380" height="50" fill="none"/>
        <text id="ITEM_4_BODY" x="10.0" y="10.0" text-anchor="start" font-size="28" fill="var(--primary-text)" data-bg-id="ITEM_4_BG" style="font-size: 26px; font-family: Inter, Segoe UI, Kalam, Roboto, Helvetica, Arial, sans-serif; font-weight: 400;" data-final-font-size="26">
          <tspan x="10.0" dy="32.84px">Lack of environmental detail</tspan>
          <tspan x="10.0" dy="29.90px">fuels imagination</tspan>
        </text>
        <rect id="ITEM_4_BODY_FRAME" x="10" y="10" width="380" height="120" fill="none"/>
      </g>
      <circle id="ITEM_4_PAD" cx="0" cy="0" r="50" fill="var(--icon-pad-bg)" stroke="var(--primary-text)" opacity="0.9" fill-opacity="0.9" stroke-width="2"/>
      <circle id="ITEM_4_PAD_INNER" cx="0" cy="0" r="39.00" fill="var(--accent-5)" fill-opacity="0.22"/>
      <circle cx="0" cy="0" r="40.0" fill="none" stroke="var(--accent-4)" stroke-width="3" stroke-dasharray="6 4"/>
      <g id="ITEM_4_ICON" transform="translate(-45, -45)" data-icon-size="90" stroke-dasharray="6 4">
        <g transform="translate(0.0,0.0) scale(3.75)" vector-effect="non-scaling-stroke" fill="#f1f5f9" fill-opacity="1.0" stroke="none">
          <path fill="#f1f5f9" d="M16 12L9 2L2 12h1.86L0 18h7v4h4v-4h7l-3.86-6zm4.14 0H22L15 2l-2.39 3.41L17.92 13h-1.95l3.22 5H24zM13 19h4v3h-4z" vector-effect="non-scaling-stroke" stroke="none"/>
        </g>
      </g>
    </g>
    <g transform="translate(600.0, 600.0)">
      <use href="#svgf03f117a-hex-shape" id="ITEM_5_BG" transform="translate(-130, -150)" fill="var(--accent-6)" fill_opacity="0.12" stroke="var(--accent-5)" stroke-width="3" fill-opacity="1.0"/>
      <circle cx="0" cy="0" r="75" fill="var(--background)" opacity="0.5"/>
      <line x1="0" y1="0" x2="225.0" y2="-0.0" stroke="var(--muted-text)" opacity="0.6" stroke-width="2.5" stroke-dasharray="4 4"/>
      <g transform="translate(-220.0, -15.0)">
        <text id="ITEM_5_HEAD" x="-10.0" y="-35.0" text-anchor="end" font-weight="bold" font-size="42" fill="var(--primary-text)" data-bg-id="ITEM_5_BG" fill-opacity="1.0" style="font-size: 30px; font-family: Inter, Segoe UI, Kalam, Roboto, Helvetica, Arial, sans-serif; font-weight: 700; letter-spacing:-0.4px;" data-final-font-size="30">
          <tspan x="-10.0" dy="33.25px">Audience Imagination</tspan>
        </text>
        <rect id="ITEM_5_HEAD_FRAME" x="-390" y="-35" width="380" height="50" fill="none"/>
        <text id="ITEM_5_BODY" x="-10.0" y="10.0" text-anchor="end" font-size="28" fill="var(--primary-text)" data-bg-id="ITEM_5_BG" style="font-size: 26px; font-family: Inter, Segoe UI, Kalam, Roboto, Helvetica, Arial, sans-serif; font-weight: 400;" data-final-font-size="26">
          <tspan x="-10.0" dy="32.84px">Uncertainty allows viewers</tspan>
          <tspan x="-10.0" dy="29.90px">to project their fears</tspan>
        </text>
        <rect id="ITEM_5_BODY_FRAME" x="-390" y="10" width="380" height="120" fill="none"/>
      </g>
      <circle id="ITEM_5_PAD" cx="0" cy="0" r="50" fill="var(--icon-pad-bg)" stroke="var(--primary-text)" opacity="0.9" fill-opacity="0.9" stroke-width="2"/>
      <circle id="ITEM_5_PAD_INNER" cx="0" cy="0" r="39.00" fill="var(--accent-6)" fill-opacity="0.22"/>
      <circle cx="0" cy="0" r="40.0" fill="none" stroke="var(--accent-5)" stroke-width="3" stroke-dasharray="6 4"/>
      <g id="ITEM_5_ICON" transform="translate(-45, -45)" data-icon-size="90" stroke-dasharray="6 4">
        <g transform="translate(-15.0,-15.0) scale(5.0)" vector-effect="non-scaling-stroke" fill="#f1f5f9" fill-opacity="1.0" stroke="none">
          <path fill="#f1f5f9" d="M13 3C9.2 3 6.2 5.9 6 9.7l-1.9 2.5c-.2.3 0 .8.4.8H6v3c0 1.1.9 2 2 2h1v3h7v-4.7c2.4-1.1 4-3.5 4-6.3c0-3.9-3.1-7-7-7" vector-effect="non-scaling-stroke" stroke="none"/>
        </g>
      </g>
    </g>
  </g>
</svg>
