<?xml version='1.0' encoding='utf-8'?>
<svg xmlns="http://www.w3.org/2000/svg" width="1920" height="1080" viewBox="0 0 1920 1080" data-theme="light">
  <style>
        @font-face {
            font-family: 'Inter';
            src: url('assets/fonts/Inter-Regular.ttf') format('truetype');
            font-weight: 400;
            font-style: normal;
            font-display: swap;
        }
        @font-face {
            font-family: 'Inter';
            src: url('assets/fonts/Inter-Bold.ttf') format('truetype');
            font-weight: 600;
            font-style: normal;
            font-display: swap;
        }
        @font-face {
            font-family: 'Inter';
            src: url('assets/fonts/Inter-Bold.ttf') format('truetype');
            font-weight: 800;
            font-style: normal;
            font-display: swap;
        }
        
:root {
    --background: #f8fafc;
    --panel: #ffffff;
    --primary-text: #0f172a;
    --muted-text: #64748b;
    --inverse-text: #ffffff;
    --border: #e2e8f0;
    --shadow-color: #000000;
    --icon-pad-bg: #1e293b;
    --art-glow: #0891b2;
    --art-glow-opacity: 0.10;
    --art-sheen: #ffffff;
    --art-sheen-opacity: 0.34;
    --art-shadow: #0f172a;
    --art-shadow-opacity: 0.14;
    --art-muted-line: #94a3b8;
    --art-panel-tint: #f1f5f9;
    --font-family: 'Inter', 'Segoe UI', 'Kalam', Roboto, Helvetica, Arial, sans-serif;
    --radius-xl: 16px;
    --font-family-headline: 'Inter', 'Segoe UI', 'Kalam', Roboto, Helvetica, Arial, sans-serif;
    --font-family-body: 'Inter', 'Segoe UI', 'Kalam', Roboto, Helvetica, Arial, sans-serif;
    --font-heading: 'Inter', 'Segoe UI', 'Kalam', Roboto, Helvetica, Arial, sans-serif;
    --font-body: 'Inter', 'Segoe UI', 'Kalam', Roboto, Helvetica, Arial, sans-serif;
    --font-size-h1: 56px;
    --font-size-h2: 40px;
    --font-size-h3: 28px;
    --font-size-body: 24px;
    --font-size-caption: 18px;
    --secondary-text: var(--muted-text);
    --panel-border: var(--border);
    --font-weight-normal: 400;
    --font-weight-medium: 500;
    --font-weight-semibold: 600;
    --font-weight-bold: 700;
    --spacing-gutter-pct: 0.07;
    --spacing-top-pct: 0.15;
    --spacing-bottom-pct: 0.07;
    --spacing-title-y-pct: 0.055;
    --accent-1: #d97706;
    --accent-2: #ea580c;
    --accent-3: #dc2626;
    --accent-4: #65a30d;
    --accent-5: #16a34a;
    --accent-6: #92400e;
}
:root[data-theme="dark"] {
    --background: #0f172a;
    --panel: #1e293b;
    --primary-text: #f1f5f9;
    --muted-text: #94a3b8;
    --inverse-text: #0f172a;
    --border: #334155;
    --shadow-color: #000000;
    --icon-pad-bg: #1e293b;
    --art-glow: #7dd3fc;
    --art-glow-opacity: 0.18;
    --art-sheen: #ffffff;
    --art-sheen-opacity: 0.18;
    --art-shadow: #000000;
    --art-shadow-opacity: 0.28;
    --art-muted-line: #64748b;
    --art-panel-tint: #1e293b;
    --accent-1: #fbbf24;
    --accent-2: #fb923c;
    --accent-3: #f87171;
    --accent-4: #a3e635;
    --accent-5: #4ade80;
    --accent-6: #d4a574;
}
:root[data-theme="light"] {
    --background: #f8fafc;
    --panel: #ffffff;
    --primary-text: #0f172a;
    --muted-text: #64748b;
    --inverse-text: #ffffff;
    --border: #e2e8f0;
    --shadow-color: #000000;
    --icon-pad-bg: #1e293b;
    --art-glow: #0891b2;
    --art-glow-opacity: 0.10;
    --art-sheen: #ffffff;
    --art-sheen-opacity: 0.34;
    --art-shadow: #0f172a;
    --art-shadow-opacity: 0.14;
    --art-muted-line: #94a3b8;
    --art-panel-tint: #f1f5f9;
    --accent-1: #d97706;
    --accent-2: #ea580c;
    --accent-3: #dc2626;
    --accent-4: #65a30d;
    --accent-5: #16a34a;
    --accent-6: #92400e;
}</style>
  <rect x="0" y="0" width="1.92E+3" height="1.08E+3" fill="#252a34" stroke="none" id="programmatic_background"/>
  <line id="HEADER_DECOR" x1="960.0" x2="1080.0" y1="95.0" y2="95.0" stroke="var(--accent-1)" stroke-width="6" stroke-linecap="round"/>
  <defs>
    <pattern id="svgd10309dd-napkin-hatch" patternUnits="userSpaceOnUse" width="12" height="12">
      <path d="M -3 12 L 12 -3 M 0 15 L 15 0" fill="none" stroke="var(--primary-text)" stroke-width="1" stroke-opacity="0.05"/>
    </pattern>
    <filter id="svgd10309dd-shadow" x="-30%" y="-30%" width="160%" height="160%">
      <feDropShadow dx="0" dy="2" stdDeviation="3" flood-color="#000000" flood-opacity="0.08"/>
      <feDropShadow dx="0" dy="6" stdDeviation="10" flood-color="#000000" flood-opacity="0.12"/>
    </filter>
    <radialGradient id="svgd10309dd-universal-edge-vignette" cx="50%" cy="50%" r="72%">
      <stop offset="0%" stop-color="var(--background)" stop-opacity="0"/>
      <stop offset="72%" stop-color="var(--background)" stop-opacity="0.12"/>
      <stop offset="100%" stop-color="var(--primary-text)" stop-opacity="0.08"/>
    </radialGradient>
    <linearGradient id="svgd10309dd-universal-surface-sheen" x1="0%" y1="0%" x2="100%" y2="100%">
      <stop offset="0%" stop-color="var(--art-sheen)" stop-opacity="var(--art-sheen-opacity)"/>
      <stop offset="46%" stop-color="var(--art-sheen)" stop-opacity="0.035"/>
      <stop offset="100%" stop-color="var(--art-panel-tint)" stop-opacity="0.14"/>
    </linearGradient>
    <radialGradient id="svgd10309dd-universal-icon-aura" cx="50%" cy="42%" r="64%">
      <stop offset="0%" stop-color="var(--art-glow)" stop-opacity="var(--art-glow-opacity)"/>
      <stop offset="100%" stop-color="var(--background)" stop-opacity="0"/>
    </radialGradient>
    <radialGradient id="svgd10309dd-venn-center-glow" cx="50%" cy="50%" r="60%">
      <stop offset="0%" stop-color="var(--art-glow)" stop-opacity="var(--art-glow-opacity)"/>
      <stop offset="100%" stop-color="var(--background)" stop-opacity="0"/>
    </radialGradient>
    <linearGradient id="svgd10309dd-venn-label-sheen" x1="0%" y1="0%" x2="100%" y2="100%">
      <stop offset="0%" stop-color="var(--inverse-text)" stop-opacity="0.14"/>
      <stop offset="100%" stop-color="var(--background)" stop-opacity="0.12"/>
    </linearGradient>
    <filter id="svgd10309dd-text-glow" x="-20%" y="-20%" width="140%" height="140%">
      <feDropShadow dx="0" dy="0" stdDeviation="2" flood-color="#000000" flood-opacity="0.4"/>
    </filter>
    <marker id="svgd10309dd-arrowhead" markerWidth="10" markerHeight="7" refX="9" refY="3.5" orient="auto" markerUnits="strokeWidth">
      <polygon points="0 0, 10 3.5, 0 7" fill="var(--muted-text)" opacity="0.6"/>
    </marker>
  </defs>
  <rect width="100%" height="100%" fill="var(--background)" id="CANVAS_BG"/>
  <rect width="100%" height="100%" fill="url(#svgd10309dd-napkin-hatch)"/>
  <rect id="UNIVERSAL_EDGE_VIGNETTE" width="100%" height="100%" fill="url(#svgd10309dd-universal-edge-vignette)" opacity="0.62"/>
  <text id="TITLE" x="960.0" y="59" text-anchor="middle" font-weight="800" font-size="56" fill="#0f172a" style="font-size: 60px; font-family: Inter, Segoe UI, Kalam, Roboto, Helvetica, Arial, sans-serif; font-weight: 700; letter-spacing:-1.2px;" data-final-font-size="60">
    <tspan x="960.0" dy="68.00px">Regional American Cryptid Landmarks</tspan>
  </text>
  <rect id="TITLE_FRAME" x="134" y="35" width="1652" height="80" fill="none"/>
  <g id="DIAGRAM_MAIN" transform="translate(960, 620)">
    <!-- Circle backgrounds -->
    <circle id="ITEM_1_BG" cx="0" cy="-130" r="200" fill="var(--accent-1)" fill-opacity="1.0" stroke="var(--border)" stroke-width="2"/>
    <circle id="ITEM_2_BG" cx="130" cy="0" r="200" fill="var(--accent-2)" fill-opacity="1.0" stroke="var(--border)" stroke-width="2"/>
    <circle id="ITEM_3_BG" cx="0" cy="130" r="200" fill="var(--accent-3)" fill-opacity="1.0" stroke="var(--border)" stroke-width="2"/>
    <circle id="ITEM_4_BG" cx="-130" cy="0" r="200" fill="var(--accent-4)" fill-opacity="1.0" stroke="var(--border)" stroke-width="2"/>
    <!-- ITEM 1 - Top (y=-260 to be in non-overlap area) -->
    <circle id="ITEM_1_PAD" cx="0" cy="-260" r="50" fill="var(--icon-pad-bg)" stroke="var(--primary-text)" opacity="0.9" fill-opacity="0.9" stroke-width="2"/>
    <circle id="ITEM_1_PAD_INNER" cx="0" cy="-260" r="39.00" fill="var(--accent-1)" fill-opacity="0.22"/>
    <circle cx="0" cy="-260" r="40" fill="none" stroke="var(--accent-1)" stroke-width="3" stroke-dasharray="6 4"/>
    <g id="ITEM_1_ICON" transform="translate(-30, -290)" data-icon-size="60">
      <g transform="translate(-10.598360655737707,-10.918032786885245) scale(0.639344262295082)">
        <path fill="#B8885A" d="M26.66 120.32c-1.35.45-1.89.95-1.89 2.02s1.39 1.96 3.16 1.77s2.59-.38 3.72-.38s2.46.38 4.54.38s2.84-.63 5.74-.63s6.63.38 8.65.25s4.61-1.45 4.48-3.98s-.82-4.36-1.14-5.36s-.44-5.05-.44-5.05l-12.31.57s.06 2.84-.38 3.79s-1.33 1.33-1.96 1.58s-5.68 2.46-6.69 2.78s-4.54 1.96-5.48 2.26m60.02-12.69s-.19 2.08-.44 3.53s-.44 3.47-1.51 4.42s-3.47 1.39-4.1 1.83s-.82 1.01-.82 1.01s-1.61.41-1.65 1.61s1.06 2.26 3 2.36s2.36-.42 2.93-.42s4.38.46 6.25-.39s2.72-3.21 3.07-4.16s.92-2.72 1.76-3.32s2.75-1.59 4.16-3.99s1.55-4.2-.25-5.61s-6.53-4.34-6.53-4.34l-7.13 5.72zm6.88-42.67s.71 1.43 2.52 2.85c1.55 1.22 3.51 2.14 4.94 2.03s3.9-1.48 4.28-3.9c.35-2.2.93-5.16-.71-6.26c-1.87-1.25-8.62-.6-8.62-.6l-2.41 5.87zm-67.01-8.78s-3.46 2.58-4.34 4.66s-.77 3.9.99 5.71c1.6 1.65 4.23 2.25 5.65 1.15s2.69-4.66 2.36-6.31s-2.96-6.09-2.96-6.09z"/>
        <path fill="#52362D" d="M39.73 105.74s-.06 3.88.05 5.38c.07.92.67 1.79 1.87 1.73c1.59-.08 2.02-1.68 2.02-1.68s-.05 3.07 2.5 3.03s4.23-3.36 4.23-3.36s.67 1.54 2.26 1.49s2.55-1.58 2.88-2.88s.48-2.21 1.01-3.27s2.26-4.27 1.87-7.83s-1.1-5.76-.91-6.53s2.65-1.65 4.8-2.79c2.55-1.34 3.41-3.17 3.84-2.98s1.63 4.56 2.11 5.81s.77 3.17 1.82 3.89s2.35.48 2.35.48s.59 2.26 2.11 3.17c.96.58 2.11.34 2.11.34s1.34 1.92 3.17 3.75s4.08 3.6 4.08 3.6l5.95-7.16l-6.77-12.34l1.54-14.45s1.34-1.39 2.26-3.22s.86-3.07.86-3.07l-16.23-1.2l-24.35 17.43l-7.44 22.67z"/>
        <path fill="#6D4C40" d="M40.84 85.14c-.55 2.47-.29 5.47-.29 7.49s-.62 6.43-.77 8.79s-.05 4.32-.05 4.32s1.92.91 3.51-.67s3.17-5.62 3.75-7.59s1.97-3.84 2.02-4.99s-.38-1.87.1-3.17s1.49-2.5 2.74-2.98s13.21-5.28 19.45-8.31s15.61-8.6 16.47-11.19s-.91-7.02-1.97-8.64c-.74-1.14-5.67-5.71-5.67-5.71l-1.87-1.73l1.34-1.34s1.34.24 1.82.29l.96.1s1.2 2.21 2.55 4.23s2.45 2.55 3.17 3.7s2.06 4.03 3.03 5.71s2.4 2.75 5.81 1.45s3.86-5.13 2.07-9.74c-1.61-4.16-3.65-8.42-5-10.72s-3.31-4.37-3.31-4.37L76.87 29.22L64.53 16.54l-3.03-4.23s-3.81-5.2-7.07-7.12s-7.28-1.65-9.39.08c-1.55 1.27-2.29 2.37-3.12 4.81c-.48 1.42-.5 3.81-.5 3.81l5.22 12.89l-2.47 8.01l.05 2.5s-1.97 2.4-3.03 4.47s-1.34 3.51-1.34 3.51l-3.75 5.28l-9.99 5.91s.58 3.84 2.55 5.23s7.4-1.54 7.4-1.54s1.56.12 2.71-.26s2.6-1.43 2.6-1.43l4.1-7.24l4.18 2.79s.48 2.35 1.2 4.18s2.93 5.57 3.84 6.1s1.63.77 1.44 1.3s-2.88 2.59-5.52 6.05s-5.09 7.54-5.62 8.26s-3.6 2.93-4.13 5.28z"/>
        <path fill="#6E4B41" d="M82.47 75.23s-.19 4.93-.9 7.82s-1.99 8.07-1.99 8.07s2.75 2.04 2.65 3.44s-.63 1.89-.7 2.3s1.78 3.6 2.2 6.25s.18 3.97.18 3.97s3.03 3.12 5.96 1.72s2.86-5.59 2.86-5.59s2.06.87 3.07-.21s.16-3.07-1.36-5.45c-1.75-2.72-2.95-6.51-4.61-8.28c-2.1-2.23-5.1-3.07-5.03-4.16c.08-1.26.77-2.93.77-5.83s-.95-6.17-.95-6.17s-.82.9-1.15 1.21c-.49.45-1.02.89-1.02.89z"/>
        <path fill="#865C51" d="M39.93 44.91s-5.54 3.89-7.03 5.03s-5.21 3.25-6.31 4.7c-.6.79-.49 1.78-.49 1.78s.65.57 2.49.41s4.7-1.73 5.65-2.23s2.08-1.29 2.08-1.29s.47.47 1.25.31s1.61-1.72 1.92-3.06c.59-2.51.44-5.66.44-5.66zm4.22-10.14s-.11-2.9.4-4.55s1.73-2.27 1.73-2.27s.27 3.84.27 4.67c0 1.15-.67 1.69-1.18 1.96s-1.22.2-1.22.2zm17.34-22.48s.11 2.67 1.17 4.91s2.2 3.88 3.14 4.23s1.61.16 1.92.55s0 7.17 1.37 10.7s3.45 6.31 5.57 6.27c1.85-.03 1.8-1.76 2.2-1.76s1.76.65 4.19.72c2.68.08 4.28-.53 4.59.02s-.12 1.73-.16 3.02s.12 4.63.31 5.65s2.04 5.76 2.67 6.51s2.12 1.1 2.39-.08s-.31-3.45.12-3.69s.86.78 1.65.67s1.25-1.37 1.1-2.82s-1.02-4.59-1.37-5.29s-.78-1.41-.78-1.41s.9-.78-.35-2.74s-4.31-5.06-6.59-6.94s-5.96-4.16-5.96-4.16s-1.49-3.14-4.63-5.68s-6.39-3.1-6.39-3.1s-.86-2.12-2.51-3.29s-3.64-2.28-3.64-2.28z"/>
        <path fill="#52362D" d="M53.06 41.02c-.96.43-.63 1.96-.21 3.26s1.43 3.73 2.46 4s1.54-.56 1.54-.56s.91 1.02 3.26 1.58s3.75-.46 3.51-1.93s-2.6-1.72-3.65-2.07s-3.12-1.3-3.96-2.07s-1.93-2.67-2.95-2.21m26.53 8.39s-3.09-1.09-5.93-2.74s-5.96-4.56-6.91-4.49s-.84 1.26-.56 2.39s.7 2.28 1.47 2.18s.6-.77.95-.77s.48 3.02 2.06 4.28s2.54.49 2.54.49s.81 1.68 2.67 2.84s3.58 2.14 5.4 3.05s2.48 1.11 3.3 1.33c.7.19 1.1.13 1.1.13c-.2-.37-.75-1.37-1.87-2.69c-1.01-1.2-2.48-2.62-3.05-3.44c-.81-1.17-1.15-2.55-1.15-2.55zm-38.49 9.2s-.56-4.64 1.23-10.43s2.77-6.39 3.3-6.81s1.26-.6 1.61-.07s-.41 3.27-.25 4.84s1.72 2.32 1.96 2.67s.67 5.17.67 5.17s-.93 1.73-2.87 2.17c-1.34.3-1.94-.29-1.94-.29s-.8.86-1.79 1.59s-1.93 1.17-1.93 1.17zm4.47-50.18c-2.17.59-4.22 3.31-4.18 5.84s.46 5.96.91 7.41s1.08 3.19 1.74 3.73s1.74.29 1.74.29s-.08 3.56 1.61 6.17s4.64 4.72 9.4 3.27s7.62-6 8.32-7.62s.62-3.68-.95-4.06s-1.57 1.04-3.02 0s0-3.77-1.24-4.72s-1.66.99-2.73.08s-.33-3.23-1.78-5.92c-1.36-2.53-5.55-5.63-9.81-4.47z"/>
        <path fill="#B99277" d="M50.88 20.02c-4.45 1.54-5.03 4.06-4.66 5.15s1.2.86 1.2.86s-.15 2.55.86 3.53s1.88.34 1.88.34s.11 3.13 2.25 3.16c3.27.04 2.71-4.51 2.71-4.51s1.14.27 1.8-.53c1.16-1.39-.08-4.25-.08-4.25s.68-.38.68-1.31s-1.77-4.13-6.65-2.44z"/>
        <path fill="#B6895A" d="M49.72 18.55c-1.32.4-1.92 2.59-1.73 3.01s1.56.77 2.71.45c1.5-.41 2.18-1.31 2.1-1.95s-1.95-1.84-3.08-1.5zm-2.86-7.93c-1.32.31-1.2 3.08-1.69 3.83s-1.88 1.73-1.43 3.08s2.14 1.39 5.56.26s4.7-1.69 4.55-3.34c-.17-1.85-2.18-1.35-3.53-2.03c-.86-.43-2.03-2.14-3.46-1.8"/>
        <path fill="#51362D" d="M48.72 25.77c1.13.89 1.71-.96 3.13-1.35s2.67.48 3.05-.55s-1.47-1.95-3.73-1.42c-2.04.48-3.28 2.67-2.45 3.32"/>
        <path fill="#52362D" d="M27.98 58.35c-.6 0-.84.66-.84 1.63c0 1.24-.09 1.78-.53 2.36s-.53 1.15-.11 1.56c.57.57 1.5.2 1.98-.57s.73-2.38.66-3.24s-.33-1.74-1.17-1.74z"/>
      </g>
    </g>
    <rect id="ITEM_1_TEXT_BG" x="-208.0" y="-226.0" width="416.0" height="190.0" rx="16" fill="var(--panel)" fill-opacity="0.94" stroke="var(--primary-text)" stroke-opacity="0.12" stroke-width="1.5"/>
    <rect x="-208.0" y="-226.0" width="416.0" height="190.0" rx="16" fill="url(#svgd10309dd-venn-label-sheen)" opacity="0.85"/>
    <text id="ITEM_1_HEAD" x="0.0" y="-210.0" text-anchor="middle" font-weight="bold" font-size="34" fill="var(--primary-text)" data-bg-id="ITEM_1_TEXT_BG" opacity="0.98" fill-opacity="1.0" style="font-size: 30px; font-family: Inter, Segoe UI, Kalam, Roboto, Helvetica, Arial, sans-serif; font-weight: 700; letter-spacing:-0.4px;" data-final-font-size="30">
      <tspan x="0.0" dy="31.25px">Point Pleasant Mothman</tspan>
    </text>
    <rect id="ITEM_1_HEAD_FRAME" x="-170" y="-210" width="340" height="46" fill="none"/>
    <text id="ITEM_1_BODY" x="0.0" y="-152.0" text-anchor="middle" font-size="20" fill="var(--primary-text)" data-bg-id="ITEM_1_TEXT_BG" style="font-size: 26px; font-family: Inter, Segoe UI, Kalam, Roboto, Helvetica, Arial, sans-serif; font-weight: 400;" data-final-font-size="26">
      <tspan x="0.0" dy="28.84px">Local sightings rose to</tspan>
      <tspan x="0.0" dy="29.90px">national cryptid fame status</tspan>
    </text>
    <rect id="ITEM_1_BODY_FRAME" x="-190" y="-152" width="380" height="100" fill="none"/>
    <!-- ITEM 2 - Right (x=260 to be in non-overlap area) -->
    <circle id="ITEM_2_PAD" cx="260" cy="0" r="50" fill="var(--icon-pad-bg)" stroke="var(--primary-text)" opacity="0.9" fill-opacity="0.9" stroke-width="2"/>
    <circle id="ITEM_2_PAD_INNER" cx="260" cy="0" r="39.00" fill="var(--accent-2)" fill-opacity="0.22"/>
    <circle cx="260" cy="0" r="40" fill="none" stroke="var(--accent-2)" stroke-width="3" stroke-dasharray="6 4"/>
    <g id="ITEM_2_ICON" transform="translate(230, -30)" data-icon-size="60">
      <g transform="translate(-13.034482758620689,-13.03448275862069) scale(3.586206896551724)" vector-effect="non-scaling-stroke" stroke-width="2.43" stroke-linecap="round" stroke-linejoin="round" stroke-opacity="1.0">
        <path d="M12 2L7 6.64286C7 6.64286 10.0424 7 12 7C13.9576 7 17 6.64286 17 6.64286L12 2Z" stroke="#f1f5f9" vector-effect="non-scaling-stroke" fill="none"/>
        <path d="M8.5 7L5 10.9394C5 10.9394 7.625 12 12 12C16.375 12 19 10.9394 19 10.9394L15.5 7" stroke="#f1f5f9" vector-effect="non-scaling-stroke" fill="none"/>
        <path d="M6.5 11.5L3 15.5231C3 15.5231 5.7 18 12 18C18.3 18 21 15.5231 21 15.5231L17.5 11.5" stroke="#f1f5f9" vector-effect="non-scaling-stroke" fill="none"/>
        <path d="M12 22L12 19" stroke="#f1f5f9" vector-effect="non-scaling-stroke" fill="none"/>
      </g>
    </g>
    <rect id="ITEM_2_TEXT_BG" x="352.0" y="-66.0" width="416.0" height="202.0" rx="16" fill="var(--panel)" fill-opacity="0.94" stroke="var(--primary-text)" stroke-opacity="0.12" stroke-width="1.5"/>
    <rect x="352.0" y="-66.0" width="416.0" height="202.0" rx="16" fill="url(#svgd10309dd-venn-label-sheen)" opacity="0.85"/>
    <text id="ITEM_2_HEAD" x="370.0" y="-50.0" text-anchor="start" font-weight="bold" font-size="36" fill="var(--primary-text)" data-bg-id="ITEM_2_TEXT_BG" opacity="0.98" fill-opacity="1.0" style="font-size: 25px; font-family: Inter, Segoe UI, Kalam, Roboto, Helvetica, Arial, sans-serif; font-weight: 700; letter-spacing:-0.4px;" data-final-font-size="25">
      <tspan x="370.0" dy="30.62px">Pine Barrens Devil</tspan>
    </text>
    <rect id="ITEM_2_HEAD_FRAME" x="370" y="-50" width="220" height="50" fill="none"/>
    <text id="ITEM_2_BODY" x="370.0" y="0.0" text-anchor="start" font-size="20" fill="var(--primary-text)" data-bg-id="ITEM_2_TEXT_BG" style="font-size: 26px; font-family: Inter, Segoe UI, Kalam, Roboto, Helvetica, Arial, sans-serif; font-weight: 400;" data-final-font-size="26">
      <tspan x="370.0" dy="32.84px">Winged creature haunts</tspan>
      <tspan x="370.0" dy="29.90px">southern New Jersey woods</tspan>
    </text>
    <rect id="ITEM_2_BODY_FRAME" x="370" y="0" width="380" height="120" fill="none"/>
    <!-- ITEM 3 - Bottom (y=260 to be in non-overlap area) -->
    <circle id="ITEM_3_PAD" cx="0" cy="220" r="50" fill="var(--icon-pad-bg)" stroke="var(--primary-text)" opacity="0.9" fill-opacity="0.9" stroke-width="2"/>
    <circle id="ITEM_3_PAD_INNER" cx="0" cy="220" r="39.00" fill="var(--accent-3)" fill-opacity="0.22"/>
    <circle cx="0" cy="220" r="40" fill="none" stroke="var(--accent-3)" stroke-width="3" stroke-dasharray="6 4"/>
    <g id="ITEM_3_ICON" transform="translate(-30, 190)" data-icon-size="60">
      <g transform="translate(-14.571428571428573,-14.571428571428571) scale(0.3482142857142857)" vector-effect="non-scaling-stroke" stroke-width="2.43" stroke-linecap="round" stroke-linejoin="round" stroke-opacity="1.0">
        <line x1="128" y1="48" x2="128" y2="24" fill="none" stroke="#f1f5f9" vector-effect="non-scaling-stroke"/>
        <line x1="128" y1="168" x2="128" y2="88" fill="none" stroke="#f1f5f9" vector-effect="non-scaling-stroke"/>
        <path d="M224,152c0,56-96,80-96,80s-96-24-96-80V125.77a8,8,0,0,1,5.47-7.59L128,88l90.53,30.18a8,8,0,0,1,5.47,7.59Z" fill="none" stroke="#f1f5f9" vector-effect="non-scaling-stroke"/>
        <path d="M56,112V56a8,8,0,0,1,8-8H192a8,8,0,0,1,8,8v56" fill="none" stroke="#f1f5f9" vector-effect="non-scaling-stroke"/>
      </g>
    </g>
    <rect id="ITEM_3_TEXT_BG" x="-208.0" y="256.0" width="416.0" height="202.0" rx="16" fill="var(--panel)" fill-opacity="0.94" stroke="var(--primary-text)" stroke-opacity="0.12" stroke-width="1.5"/>
    <rect x="-208.0" y="256.0" width="416.0" height="202.0" rx="16" fill="url(#svgd10309dd-venn-label-sheen)" opacity="0.85"/>
    <text id="ITEM_3_HEAD" x="0.0" y="272.0" text-anchor="middle" font-weight="bold" font-size="36" fill="var(--accent-3)" data-bg-id="ITEM_3_TEXT_BG" opacity="0.98" fill-opacity="1.0" style="font-size: 28px; font-family: Inter, Segoe UI, Kalam, Roboto, Helvetica, Arial, sans-serif; font-weight: 700; letter-spacing:-0.4px;" data-final-font-size="28">
      <tspan x="0.0" dy="30.30px">Lake Champlain Champ</tspan>
    </text>
    <rect id="ITEM_3_HEAD_FRAME" x="-140" y="272" width="280" height="48" fill="none"/>
    <text id="ITEM_3_BODY" x="0.0" y="322.0" text-anchor="middle" font-size="20" fill="var(--primary-text)" data-bg-id="ITEM_3_TEXT_BG" style="font-size: 26px; font-family: Inter, Segoe UI, Kalam, Roboto, Helvetica, Arial, sans-serif; font-weight: 400;" data-final-font-size="26">
      <tspan x="0.0" dy="32.84px">Large fish-like creature</tspan>
      <tspan x="0.0" dy="29.90px">serves as regional mascot</tspan>
    </text>
    <rect id="ITEM_3_BODY_FRAME" x="-190" y="322" width="380" height="120" fill="none"/>
    <!-- ITEM 4 - Left (x=-260 to be in non-overlap area) -->
    <circle id="ITEM_4_PAD" cx="-260" cy="0" r="50" fill="var(--icon-pad-bg)" stroke="var(--primary-text)" opacity="0.9" fill-opacity="0.9" stroke-width="2"/>
    <circle id="ITEM_4_PAD_INNER" cx="-260" cy="0" r="39.00" fill="var(--accent-4)" fill-opacity="0.22"/>
    <circle cx="-260" cy="0" r="40" fill="none" stroke="var(--accent-4)" stroke-width="3" stroke-dasharray="6 4"/>
    <g id="ITEM_4_ICON" transform="translate(-290, -30)" data-icon-size="60">
      <g transform="translate(-14.571428571428571,-27.107142857142854) scale(2.7857142857142856)">
        <path d="M5.5 11C5.22386 11 5 11.2239 5 11.5V13H9V11.5C9 11.2239 8.77614 11 8.5 11H5.5Z" fill="#D3D3D3"/>
        <path d="M21.5 11C21.2239 11 21 11.2239 21 11.5V13H27V11.5C27 11.2239 26.7761 11 26.5 11H21.5Z" fill="#D3D3D3"/>
        <path d="M2 14C2 12.8954 2.89543 12 4 12H28C29.1046 12 30 12.8954 30 14V16.5L28 22L30 27.5V28C30 29.1046 29.1046 30 28 30H4C2.89543 30 2 29.1046 2 28V27.5L3.5 22L2 16.5V14Z" fill="#E6E6E6"/>
        <path d="M2 16.5C2 16.2239 2.22386 16 2.5 16H29.5C29.7761 16 30 16.2239 30 16.5V27.5C30 27.7761 29.7761 28 29.5 28H2.5C2.22386 28 2 27.7761 2 27.5V16.5Z" fill="#533566"/>
        <path d="M22 22C22 25.3137 19.3137 28 16 28C12.6863 28 10 25.3137 10 22C10 18.6863 12.6863 16 16 16C19.3137 16 22 18.6863 22 22Z" fill="#321B41"/>
        <path d="M16 27C18.7614 27 21 24.7614 21 22C21 19.2386 18.7614 17 16 17C13.2386 17 11 19.2386 11 22C11 24.7614 13.2386 27 16 27ZM16 29C12.134 29 9 25.866 9 22C9 18.134 12.134 15 16 15C19.866 15 23 18.134 23 22C23 25.866 19.866 29 16 29Z" fill="#9B9B9B"/>
        <path d="M18.5 22C18.5 23.3807 17.3807 24.5 16 24.5C14.6193 24.5 13.5 23.3807 13.5 22C13.5 20.6193 14.6193 19.5 16 19.5C17.3807 19.5 18.5 20.6193 18.5 22Z" fill="#433B6B"/>
        <path d="M19.0825 19.875C19.4967 20.5924 19.4448 21.3979 18.9665 21.674C18.4882 21.9501 17.7647 21.5924 17.3505 20.875C16.9363 20.1575 16.9882 19.3521 17.4665 19.0759C17.9448 18.7998 18.6683 19.1575 19.0825 19.875Z" fill="white"/>
      </g>
    </g>
    <rect id="ITEM_4_TEXT_BG" x="-768.0" y="-66.0" width="416.0" height="202.0" rx="16" fill="var(--panel)" fill-opacity="0.94" stroke="var(--primary-text)" stroke-opacity="0.12" stroke-width="1.5"/>
    <rect x="-768.0" y="-66.0" width="416.0" height="202.0" rx="16" fill="url(#svgd10309dd-venn-label-sheen)" opacity="0.85"/>
    <text id="ITEM_4_HEAD" x="-370.0" y="-50.0" text-anchor="end" font-weight="bold" font-size="36" fill="var(--primary-text)" data-bg-id="ITEM_4_TEXT_BG" opacity="0.98" fill-opacity="1.0" style="font-size: 21px; font-family: Inter, Segoe UI, Kalam, Roboto, Helvetica, Arial, sans-serif; font-weight: 700; letter-spacing:-0.4px;" data-final-font-size="21">
      <tspan x="-370.0" dy="17.65px">Pacific Northwest</tspan>
      <tspan x="-370.0" dy="24.15px">Bigfoot</tspan>
    </text>
    <rect id="ITEM_4_HEAD_FRAME" x="-590" y="-50" width="220" height="50" fill="none"/>
    <text id="ITEM_4_BODY" x="-370.0" y="0.0" text-anchor="end" font-size="20" fill="var(--primary-text)" data-bg-id="ITEM_4_TEXT_BG" style="font-size: 26px; font-family: Inter, Segoe UI, Kalam, Roboto, Helvetica, Arial, sans-serif; font-weight: 400;" data-final-font-size="26">
      <tspan x="-370.0" dy="32.84px">Large unknown primate remains</tspan>
      <tspan x="-370.0" dy="29.90px">a forest mystery</tspan>
    </text>
    <rect id="ITEM_4_BODY_FRAME" x="-750" y="0" width="380" height="120" fill="none"/>
  </g>
</svg>
